<?xml version="1.0" encoding="UTF-8" standalone="no"?>
<svg width="51px" height="51px" viewBox="0 0 51 51" version="1.1" xmlns="http://www.w3.org/2000/svg" xmlns:xlink="http://www.w3.org/1999/xlink">
  <title>Armchair</title>
  <g>
    <rect x="3.63636364" y="12.7272727" width="13.6363636" height="1.81818182"></rect>
    <path d="M3.63636364,10 L3.63636364,11.8181818 L17.2727273,11.8181818 L17.2727273,10 C17.2727273,9.49792295 17.6797411,9.09090909 18.1818182,9.09090909 L19.0909091,9.09090909 L19.0909091,1.36363636 C19.0909091,0.610520796 18.4803883,0 17.7272727,0 L3.18181818,0 C2.42870261,0 1.81818182,0.610520796 1.81818182,1.36363636 L1.81818182,9.09090909 L2.72727273,9.09090909 C3.22934977,9.09090909 3.63636364,9.49792295 3.63636364,10 Z"></path>
    <path d="M20,10 L19.0909091,10 C18.588832,10 18.1818182,10.4070139 18.1818182,10.9090909 L18.1818182,15.4545455 L2.72727273,15.4545455 L2.72727273,10.9090909 C2.72727273,10.4070139 2.32025886,10 1.81818182,10 L0.909090909,10 C0.407013864,10 0,10.4070139 0,10.9090909 L0,19.0909091 C0,19.5929861 0.407013864,20 0.909090909,20 L2.72727273,20 L2.72727273,18.1818182 L18.1818182,18.1818182 L18.1818182,20 L20,20 C20.502077,20 20.9090909,19.5929861 20.9090909,19.0909091 L20.9090909,10.9090909 C20.9090909,10.4070139 20.502077,10 20,10 Z"></path>
  </g>
</svg>