<?xml version="1.0" encoding="UTF-8" standalone="no"?>
<svg width="51px" height="51px" viewBox="0 0 51 51" version="1.1" xmlns="http://www.w3.org/2000/svg" xmlns:xlink="http://www.w3.org/1999/xlink">
<title>Calendar</title>
<defs>
<linearGradient x1="0.635245675%" y1="0%" x2="100%" y2="100%" id="calendarGradientIcon">
<stop stop-color="#41A4FF" offset="0%"></stop>
<stop stop-color="#2A77F0" offset="100%"></stop>
</linearGradient>
</defs>
<g fill="url(#calendarGradientIcon)" fill-rule="nonzero">
<path d="M33.32,18.4285714 L29.92,18.4285714 L29.92,17.3571429 C29.92,17.1598983 29.7677768,17 29.58,17 C29.3922232,17 29.24,17.1598983 29.24,17.3571429 L29.24,18.4285714 L21.76,18.4285714 L21.76,17.3571429 C21.76,17.1598983 21.6077768,17 21.42,17 C21.2322232,17 21.08,17.1598983 21.08,17.3571429 L21.08,18.4285714 L17.68,18.4285714 C17.3044464,18.4285714 17,18.748368 17,19.1428571 L17,22 L34,22 L34,19.1428571 C34,18.748368 33.6955536,18.4285714 33.32,18.4285714 Z"></path>
<path d="M17,33.3125 C17,33.6921958 17.3044464,34 17.68,34 L33.32,34 C33.6955536,34 34,33.6921958 34,33.3125 L34,23 L17,23 L17,33.3125 Z"></path>
</g>
</svg>