<?xml version="1.0" encoding="UTF-8" standalone="no"?>
<svg width="51px" height="51px" viewBox="0 0 51 51" version="1.1" xmlns="http://www.w3.org/2000/svg" xmlns:xlink="http://www.w3.org/1999/xlink">
<title>Certified/icon</title>
<g fill="#368EF7" fill-rule="nonzero">
<path d="M7.5761434,16.3828 L4.0768634,19.882 C3.96643885,19.9924494 3.80182903,20.0285273 3.65533128,19.9743879 C3.50883353,19.9202485 3.40724484,19.7857951 3.3951834,19.63008 L3.2051834,17.16176 C3.18999394,16.9651541 3.0337893,16.8089495 2.8371834,16.79376 L0.369343397,16.60392 C0.213585687,16.5919428 0.0790528854,16.4903859 0.0248556594,16.3438711 C-0.0293415666,16.1973564 0.00671518627,16.0326967 0.117183397,15.92224 L3.1130234,12.92656 C4.15828806,14.5582629 5.73478919,15.7791053 7.5761434,16.3828 Z M19.8817434,15.92224 L17.1081434,13.1488 C16.0049633,14.754405 14.3785436,15.9271815 12.5067034,16.4668 L15.9220634,19.882 C16.0324879,19.9924494 16.1970978,20.0285273 16.3435955,19.9743879 C16.4900933,19.9202485 16.591682,19.7857951 16.6037434,19.63008 L16.7937434,17.16176 C16.8089329,16.9651541 16.9651375,16.8089495 17.1617434,16.79376 L19.6295034,16.60392 C19.7852611,16.5919428 19.9197939,16.4903859 19.9739911,16.3438711 C20.0281884,16.1973564 19.9921316,16.0326967 19.8816634,15.92224 L19.8817434,15.92224 Z M9.9994234,4.8 C8.0111983,4.8 6.3994234,6.4117749 6.3994234,8.4 C6.3994234,10.3882251 8.0111983,12 9.9994234,12 C11.9876485,12 13.5994234,10.3882251 13.5994234,8.4 C13.5972189,6.41268873 11.9867347,4.80220445 9.9994234,4.8 Z M9.9994234,16 C5.8020593,16 2.3994234,12.5973641 2.3994234,8.4 C2.3994234,4.2026359 5.8020593,0.8 9.9994234,0.8 C14.1967875,0.8 17.5994234,4.2026359 17.5994234,8.4 C17.594662,12.5953903 14.1948137,15.9952386 9.9994234,16 Z M14.3994234,8.4 C14.3994234,5.9699471 12.4294763,4 9.9994234,4 C7.5693705,4 5.5994234,5.9699471 5.5994234,8.4 C5.5994234,10.8300529 7.5693705,12.8 9.9994234,12.8 C11.166376,12.8 12.2855332,12.3364299 13.1106932,11.5112698 C13.9358533,10.6861098 14.3994234,9.56695256 14.3994234,8.4 Z"></path>
</g>
</svg>