<?xml version="1.0" encoding="UTF-8" standalone="no"?>
<svg width="51px" height="51px" viewBox="0 0 51 51" version="1.1" xmlns="http://www.w3.org/2000/svg" xmlns:xlink="http://www.w3.org/1999/xlink">
    <title>Coffee</title>
    <path d="M11.7675652,5.2173913 C11.793838,5.2173717 11.8200471,5.21480903 11.8458261,5.20973913 C12.0739318,5.15566867 12.2181001,4.93049229 12.1717391,4.70069565 C11.9854317,3.95951427 12.2974631,3.18264777 12.9446957,2.77626087 C13.7557534,2.24379665 14.1084893,1.23326002 13.8049565,0.31173913 C13.7785208,0.203660738 13.7089593,0.111132374 13.6124793,0.0557122251 C13.5159993,0.000292076585 13.4010263,-0.0131800262 13.2943478,0.0184347826 C13.0724271,0.0956110015 12.9504078,0.333636715 13.0173043,0.558869565 C13.2433913,1.36634783 12.9303478,1.6473913 12.4124348,2.11356522 C11.5373888,2.73307169 11.1235338,3.81999929 11.3649565,4.8646087 C11.3961575,5.06410852 11.5656956,5.21266491 11.7675652,5.2173913 Z"></path>
    <path d="M14.3478261,19.1304348 L3.91304348,19.1304348 C3.67291967,19.1304348 3.47826087,19.3250936 3.47826087,19.5652174 C3.47826087,19.8053412 3.67291967,20 3.91304348,20 L14.3478261,20 C14.5879499,20 14.7826087,19.8053412 14.7826087,19.5652174 C14.7826087,19.3250936 14.5879499,19.1304348 14.3478261,19.1304348 Z"></path>
    <path d="M18.2608696,6.08695652 L0.869565217,6.08747826 C0.389317609,6.08747826 0,6.47679587 0,6.95704348 L0,8.69565217 L13.4782609,8.69565217 C13.7183847,8.69565217 13.9130435,8.89031098 13.9130435,9.13043478 C13.9130435,9.37055859 13.7183847,9.56521739 13.4782609,9.56521739 L0,9.56521739 L0,11.3043478 C3.8616453e-16,15.1463287 3.11454087,18.2608696 6.95652174,18.2608696 L10.4347826,18.2608696 C14.2767635,18.2608696 17.3913043,15.1463287 17.3913043,11.3043478 L18.2608696,11.3043478 C19.7016124,11.3043478 20.8695652,10.136395 20.8695652,8.69565217 C20.8695652,7.25490935 19.7016124,6.08695652 18.2608696,6.08695652 Z M18.2608696,10.4347826 L17.3913043,10.4347826 L17.3913043,6.95652174 L18.2608696,6.95652174 C19.2213648,6.95652174 20,7.73515696 20,8.69565217 C20,9.65614739 19.2213648,10.4347826 18.2608696,10.4347826 Z"></path>
    <path d="M8.28930435,5.2173913 C8.3155771,5.2173717 8.34178627,5.21480903 8.36756522,5.20973913 C8.59567094,5.15566867 8.73983921,4.93049229 8.69347826,4.70069565 C8.50717085,3.95951427 8.81920222,3.18264777 9.46643478,2.77626087 C10.2774926,2.24379665 10.6302284,1.23326002 10.3266957,0.31173913 C10.3002599,0.203660738 10.2306985,0.111132374 10.1342184,0.0557122251 C10.0377384,0.000292076585 9.9227654,-0.0131800262 9.81608696,0.0184347826 C9.59416621,0.0956110015 9.47214691,0.333636715 9.53904348,0.558869565 C9.76513043,1.36634783 9.45208696,1.6473913 8.93417391,2.11356522 C8.05912795,2.73307169 7.64527297,3.81999929 7.88669565,4.8646087 C7.91789663,5.06410852 8.08743473,5.21266491 8.28930435,5.2173913 Z"></path>
    <path d="M4.81104348,5.2173913 C4.83731623,5.2173717 4.8635254,5.21480903 4.88930435,5.20973913 C5.11741007,5.15566867 5.26157834,4.93049229 5.21521739,4.70069565 C5.02884267,3.95959206 5.34072523,3.18274648 5.98782609,2.77626087 C6.79888388,2.24379665 7.15161971,1.23326002 6.84808696,0.31173913 C6.82165121,0.203660738 6.75208977,0.111132374 6.65560975,0.0557122251 C6.55912973,0.000292076585 6.44415671,-0.0131800262 6.33747826,0.0184347826 C6.11555751,0.0956110015 5.99353822,0.333636715 6.06043478,0.558869565 C6.28652174,1.36634783 5.97347826,1.6473913 5.45556522,2.11356522 C4.5805533,2.73305811 4.16670263,3.81994005 4.40808696,4.86452174 C4.4392738,5.06418251 4.60901333,5.21282364 4.81104348,5.2173913 Z"></path>
</svg>