<?xml version="1.0" encoding="UTF-8" standalone="no"?>
<svg width="51px" height="51px" viewBox="0 0 51 51" version="1.1" xmlns="http://www.w3.org/2000/svg" xmlns:xlink="http://www.w3.org/1999/xlink">
    <title>Curved Sheet</title>
    <path d="M17.9047619,0 L4.95238095,0 C4.3214769,0.000671889875 3.8101957,0.511953087 3.80952381,1.14285714 L3.80952381,8.38095238 L1.14285714,8.38095238 C0.511953087,8.38162427 0.000671889875,8.89290547 0,9.52380952 L0,16.7619048 C1.27580062e-15,18.0242699 1.02334914,19.047619 2.28571429,19.047619 L15.6190476,19.047619 C17.5117424,19.0455615 19.0455615,17.5117424 19.047619,15.6190476 L19.047619,1.14285714 C19.0469472,0.511953087 18.535666,0.000671889875 17.9047619,0 Z M3.80952381,16.3809524 L3.80952381,16.7619048 C3.80952381,17.6034815 3.12729105,18.2857143 2.28571429,18.2857143 C1.44413752,18.2857143 0.761904762,17.6034815 0.761904762,16.7619048 L0.761904762,9.52380952 C0.761904762,9.31341533 0.932462952,9.14285714 1.14285714,9.14285714 L3.80952381,9.14285714 L3.80952381,16.3809524 Z M13.3333333,16 L7.23809524,16 C7.02770105,16 6.85714286,15.8294418 6.85714286,15.6190476 C6.85714286,15.4086534 7.02770105,15.2380952 7.23809524,15.2380952 L13.3333333,15.2380952 C13.5437275,15.2380952 13.7142857,15.4086534 13.7142857,15.6190476 C13.7142857,15.8294418 13.5437275,16 13.3333333,16 Z M15.6190476,12.952381 L7.23809524,12.952381 C7.02770105,12.952381 6.85714286,12.7818228 6.85714286,12.5714286 C6.85714286,12.3610344 7.02770105,12.1904762 7.23809524,12.1904762 L15.6190476,12.1904762 C15.8294418,12.1904762 16,12.3610344 16,12.5714286 C16,12.7818228 15.8294418,12.952381 15.6190476,12.952381 Z M15.6190476,9.9047619 L7.23809524,9.9047619 C7.02770105,9.9047619 6.85714286,9.73420371 6.85714286,9.52380952 C6.85714286,9.31341533 7.02770105,9.14285714 7.23809524,9.14285714 L15.6190476,9.14285714 C15.8294418,9.14285714 16,9.31341533 16,9.52380952 C16,9.73420371 15.8294418,9.9047619 15.6190476,9.9047619 Z M16,6.0952381 C16,6.51602648 15.6588836,6.85714286 15.2380952,6.85714286 L7.61904762,6.85714286 C7.19825924,6.85714286 6.85714286,6.51602648 6.85714286,6.0952381 L6.85714286,3.80952381 C6.85714286,3.38873543 7.19825924,3.04761905 7.61904762,3.04761905 L15.2380952,3.04761905 C15.6588836,3.04761905 16,3.38873543 16,3.80952381 L16,6.0952381 Z"></path>
</svg>