<?xml version="1.0" encoding="UTF-8" standalone="no"?>
<svg width="51px" height="51px" viewBox="0 0 51 51" version="1.1" xmlns="http://www.w3.org/2000/svg" xmlns:xlink="http://www.w3.org/1999/xlink">
    <title>Donut</title>
    <g>
      <path d="M16.5832804,9.80663139 C16.0404102,10.0984693 15.4309781,10.2441174 14.8148148,10.2292769 C14.107012,10.21583 13.4067642,10.0810348 12.7445503,9.83075838 C12.4803527,9.74356261 12.2349206,9.66447972 11.9844797,9.60768959 C11.9441765,11.221983 10.6968764,12.5480044 9.08806513,12.6869066 C7.47925382,12.8258089 6.02313272,11.7331968 5.70673721,10.1497002 C5.4581477,10.0846182 5.21733305,9.99281959 4.98850088,9.87590829 C4.54121734,9.63122677 4.03697701,9.50971926 3.52733686,9.52380952 C2.89471814,9.53794184 2.26923928,9.66074197 1.67823633,9.88684303 C1.15250475,10.0880748 0.597686559,10.2029502 0.0352733686,10.2270194 C0.40900293,14.9462952 4.44382189,18.5275813 9.17409912,18.3385977 C13.9043764,18.1496141 17.6406331,14.2578587 17.6366843,9.52380952 C17.2668876,9.52455791 16.903724,9.62206146 16.5832804,9.80663139 Z M13.5702293,13.7566138 L11.9929453,13.7566138 C11.7981359,13.7566138 11.6402116,13.5986895 11.6402116,13.4038801 C11.6402116,13.2090706 11.7981359,13.0511464 11.9929453,13.0511464 L13.5702293,13.0511464 C13.7650387,13.0511464 13.922963,13.2090706 13.922963,13.4038801 C13.922963,13.5986895 13.7650387,13.7566138 13.5702293,13.7566138 Z"></path>
      <path d="M3.52733686,8.81834215 C4.14350019,8.8035016 4.75293222,8.94914973 5.29580247,9.24098765 C5.42017637,9.30116402 5.53622575,9.35343915 5.6562963,9.39887125 C5.71674098,7.79663565 6.96435319,6.49197265 8.56228759,6.35999485 C10.160222,6.22801705 11.6049795,7.31030983 11.927478,8.88091711 C12.2799368,8.94864904 12.6269481,9.04216312 12.9657143,9.16070547 C13.556713,9.38683063 14.182192,9.50965465 14.8148148,9.52380952 C15.3244723,9.53793393 15.8287382,9.41645047 16.2760494,9.17178131 C16.6821001,8.94740001 17.1373153,8.8268591 17.6011993,8.82088183 C17.2261109,4.10281663 13.1919057,0.523124031 8.46272392,0.711990298 C3.73354216,0.900856565 -0.00235072331,4.79085854 -5.77206321e-13,9.52380952 C0.499471893,9.50396416 0.992041998,9.40019866 1.45707231,9.21686067 C2.11928626,8.96658421 2.81953406,8.83178901 3.52733686,8.81834215 Z M13.0153086,7.58377425 L13.8041623,6.21763668 C13.8645344,6.10340769 13.9825272,6.03132631 14.1117193,6.02975131 C14.2409113,6.02817632 14.3606263,6.09735977 14.4237652,6.21008302 C14.4869042,6.32280627 14.4833621,6.4610289 14.4145326,6.57037037 L13.6257496,7.93650794 C13.5653774,8.05073693 13.4473846,8.12281831 13.3181926,8.12439331 C13.1890006,8.1259683 13.0692855,8.05678485 13.0061466,7.9440616 C12.9430077,7.83133835 12.9465497,7.69311572 13.0153792,7.58377425 L13.0153086,7.58377425 Z M11.9929453,4.58553792 C12.1877548,4.58553792 12.345679,4.74346217 12.345679,4.9382716 C12.345679,5.13308104 12.1877548,5.29100529 11.9929453,5.29100529 L10.4153086,5.29100529 C10.2204992,5.29100529 10.062575,5.13308104 10.062575,4.9382716 C10.062575,4.74346217 10.2204992,4.58553792 10.4153086,4.58553792 L11.9929453,4.58553792 Z M8.30786596,3.21178131 L9.71880071,2.50631393 C9.89305774,2.41917568 10.1049605,2.4897994 10.1920988,2.66405644 C10.279237,2.83831348 10.2086133,3.05021623 10.0343563,3.1373545 L8.62342152,3.84282187 C8.44916448,3.92996013 8.23726172,3.8593364 8.15012346,3.68507936 C8.0629852,3.51082232 8.13360893,3.29891957 8.30786596,3.21178131 Z M6.70405644,4.15710758 C6.7128871,4.06364314 6.75903812,3.97768979 6.83206728,3.91869551 C6.90509644,3.85970123 6.99883139,3.83265214 7.09206349,3.84366843 C7.28575268,3.86427784 7.42607428,4.03798228 7.40550265,4.23167549 L7.23880071,5.8 C7.21381896,5.98970922 7.0421394,6.12490549 6.85186093,6.10471197 C6.66158245,6.08451845 6.52210312,5.91630009 6.53749559,5.72557319 L6.70405644,4.15710758 Z M3.56472663,3.68359788 C3.65204348,3.50954691 3.8637484,3.43898912 4.03802469,3.52585538 L5.44895944,4.23132275 C5.62321648,4.31846101 5.6938402,4.53036377 5.60670194,4.70462081 C5.51956368,4.87887785 5.30766092,4.94950158 5.13340388,4.86236332 L3.72246914,4.15689594 C3.63876253,4.11505818 3.57511166,4.04167249 3.54552704,3.95289218 C3.51594242,3.86411187 3.52284904,3.76721402 3.56472663,3.68352734 L3.56472663,3.68359788 Z M2.1966843,7.21135802 C2.22702723,7.16595077 2.26747211,7.12818612 2.31485009,7.10102293 L3.68444444,6.31795414 C3.79386727,6.25541061 3.92834471,6.25599438 4.03722041,6.31948557 C4.14609612,6.38297675 4.21282927,6.49972951 4.21228214,6.62576423 C4.21173502,6.75179894 4.14399073,6.86796793 4.0345679,6.93051146 L2.66497354,7.71358025 C2.52287909,7.79477094 2.34360199,7.76756267 2.23199513,7.64786859 C2.12038826,7.52817452 2.10576762,7.34743492 2.1966843,7.21135802 Z"></path>
    </g>
</svg>