<?xml version="1.0" encoding="UTF-8" standalone="no"?>
<svg width="51px" height="51px" viewBox="0 0 51 51" version="1.1" xmlns="http://www.w3.org/2000/svg" xmlns:xlink="http://www.w3.org/1999/xlink">
<title>Genders</title>
  <g id="gender">
    <path d="M19.965,0.281 C19.8943528,0.111512862 19.7290744,0.000813962822 19.5454545,0 L15.9090909,0 C15.6580524,-1.53716762e-17 15.4545455,0.203506932 15.4545455,0.454545455 C15.4545455,0.705583977 15.6580524,0.909090909 15.9090909,0.909090909 L18.4481818,0.909090909 L14.5624545,4.79490909 C12.7093812,3.24928771 10.0165456,3.24856442 8.16264219,4.79319011 C6.30873882,6.3378158 5.82336146,8.98654628 7.00909091,11.0881818 C7.26369807,10.8780131 7.48446134,10.6299304 7.66363636,10.3526364 C7.4089761,9.81616002 7.27551594,9.23020784 7.27272727,8.63636364 C7.27272727,6.98174536 8.26944527,5.49005146 9.79811323,4.85685646 C11.3267812,4.22366146 13.0863541,4.57366227 14.2563459,5.74365408 C15.4263377,6.91364588 15.7763385,8.67321881 15.1431435,10.2018868 C14.5099485,11.7305547 13.0182546,12.7272727 11.3636364,12.7272727 C10.7505786,12.7238395 10.1463342,12.5809932 9.59663636,12.3095455 C9.39676343,12.5597554 9.17701954,12.7934233 8.93954545,13.0082727 C11.0438587,14.1759 13.6814629,13.6783778 15.2158212,11.8244004 C16.7501796,9.97042307 16.7457083,7.28630976 15.2051818,5.43745455 L19.0909091,1.55181818 L19.0909091,4.09090909 C19.0909091,4.34194761 19.294416,4.54545455 19.5454545,4.54545455 C19.7964931,4.54545455 20,4.34194761 20,4.09090909 L20,0.454545455 C19.9998206,0.394962132 19.9879284,0.335995386 19.965,0.281 Z"></path>
    <path d="M10,8.63636364 C10.0003434,7.77704498 9.7779615,6.93230712 9.35454545,6.18454545 C9.0999383,6.39471413 8.87917502,6.64279686 8.7,6.92009091 C8.95466026,7.45656725 9.08812042,8.04251944 9.09090909,8.63636364 C9.09090909,10.8957103 7.2593467,12.7272727 5,12.7272727 C2.7406533,12.7272727 0.909090909,10.8957103 0.909090909,8.63636364 C0.909090909,6.37701693 2.7406533,4.54545455 5,4.54545455 C5.61305774,4.54888782 6.21730216,4.6917341 6.767,4.96318182 C6.96687294,4.71297186 7.18661682,4.47930397 7.42409091,4.26445455 C5.64397077,3.27673856 3.44269146,3.46723392 1.8587156,4.74607367 C0.274739747,6.02491341 -0.375456069,8.13658679 0.21486072,10.0849032 C0.805177509,12.0332195 2.51806228,13.4289075 4.54545455,13.6135455 L4.54545455,16.3636364 L3.18181818,16.3636364 C2.93077966,16.3636364 2.72727273,16.5671433 2.72727273,16.8181818 C2.72727273,17.0692203 2.93077966,17.2727273 3.18181818,17.2727273 L4.54545455,17.2727273 L4.54545455,19.5454545 C4.54545455,19.7964931 4.74896148,20 5,20 C5.25103852,20 5.45454545,19.7964931 5.45454545,19.5454545 L5.45454545,17.2727273 L6.81818182,17.2727273 C7.06922034,17.2727273 7.27272727,17.0692203 7.27272727,16.8181818 C7.27272727,16.5671433 7.06922034,16.3636364 6.81818182,16.3636364 L5.45454545,16.3636364 L5.45454545,13.6135455 C8.02857582,13.3790868 9.99942183,11.2210499 10,8.63636364 Z"></path>
  </g>
</svg>