<?xml version="1.0" encoding="UTF-8" standalone="no"?>
<svg width="51px" height="51px" viewBox="0 0 51 51" version="1.1" xmlns="http://www.w3.org/2000/svg" xmlns:xlink="http://www.w3.org/1999/xlink">
<title>Inspection/icon</title>
<defs>
<linearGradient x1="0.635245675%" y1="0%" x2="100%" y2="100%" id="obometerIconGradient">
<stop stop-color="#41A4FF" offset="0%"></stop>
<stop stop-color="#2A77F0" offset="100%"></stop>
</linearGradient>
</defs>
<g fill="url(#obometerIconGradient)" fill-rule="nonzero">
<path d="M3.6,3.6 L3.6,2 C3.6,1.7790861 3.7790861,1.6 4,1.6 L4.4,1.6 L4.4,1.2 C4.4,0.5372583 4.9372583,1.21743675e-16 5.6,0 L10.4,0 C11.0627417,4.05812251e-17 11.6,0.5372583 11.6,1.2 L11.6,1.6 L12,1.6 C12.2209139,1.6 12.4,1.7790861 12.4,2 L12.4,3.6 C12.4,3.8209139 12.2209139,4 12,4 L4,4 C3.7790861,4 3.6,3.8209139 3.6,3.6 Z M15.6,3.6 L15.6,18.8 C15.6,19.4627417 15.0627417,20 14.4,20 L1.6,20 C0.9372583,20 0.4,19.4627417 0.4,18.8 L0.4,3.6 C0.4,2.9372583 0.9372583,2.4 1.6,2.4 L2.87384,2.4 C2.82632706,2.52807288 2.80134485,2.66340449 2.8,2.8 L2.8,3.6 C2.80070548,4.26244926 3.33755074,4.79929452 4,4.8 L12,4.8 C12.6624493,4.79929452 13.1992945,4.26244926 13.2,3.6 L13.2,2.8 C13.1986552,2.66340449 13.1736729,2.52807288 13.12616,2.4 L14.4,2.4 C15.0627417,2.4 15.6,2.9372583 15.6,3.6 Z M11.6,15.6 C11.5978184,14.1042536 10.668976,12.7664094 9.26832,12.2416 C9.74671466,11.7490096 10.0098975,11.0865922 10,10.4 C10.1000914,9.1882266 9.20995753,8.12006594 8,8 C6.79004247,8.12006594 5.89990858,9.1882266 6,10.4 C5.99010249,11.0865922 6.25328534,11.7490096 6.73168,12.2416 C5.33102402,12.7664094 4.40218156,14.1042536 4.4,15.6 C4.4,15.8209139 4.5790861,16 4.8,16 L11.2,16 C11.4209139,16 11.6,15.8209139 11.6,15.6 Z M8,12 C8.6504,12 9.2,11.26736 9.2,10.4 C9.2,9.53264 8.6504,8.8 8,8.8 C7.3496,8.8 6.8,9.53264 6.8,10.4 C6.8,11.26736 7.3496,12 8,12 Z M8,12.8 C6.60870997,12.8017023 5.42903793,13.8232403 5.22848,15.2 L10.77144,15.2 C10.5708865,13.8232703 9.39125966,12.801742 8,12.8 Z"></path>
</g>
</svg>