<?xml version="1.0" encoding="UTF-8" standalone="no"?>
<svg width="93px" height="93px" viewBox="0 0 93 93" version="1.1" xmlns="http://www.w3.org/2000/svg" xmlns:xlink="http://www.w3.org/1999/xlink">
<title>New Buses Icons</title>
<g fill="#000000" fill-rule="evenodd">
<path d="M76.9918304,42.284347 C77.0179464,42.0474314 76.9749554,41.799895 76.8513393,41.5785567 L72.7436161,34.2194474 C71.3348214,31.7340292 70.0053125,30.282656 67.3446875,30.0372437 C67.2575,30.0130282 67.1657589,30 67.0712054,30 L20.2142857,30 C18.4420089,30 17,31.5245862 17,33.3986689 L17,52.3825002 C17,55.4517814 19.4333482,56.9231218 21.2932143,57.4484993 C21.4180357,61.0832341 24.2516964,64 27.7192411,64 C30.8999107,64 33.5470089,61.5446034 34.0588839,58.3322949 L59.9992411,58.3322949 C60.51125,61.5446034 63.1588839,64 66.3402232,64 C69.5208929,64 72.1679911,61.5446034 72.6798661,58.3322949 L75.9285714,58.3322949 C76.5202679,58.3322949 77,57.8250435 77,57.1994052 L77,42.418736 C77,42.3731372 76.9967857,42.3285297 76.9918304,42.284347 Z M72.7709375,45.9195065 C72.7709375,45.2948595 73.2516071,44.7866169 73.8423661,44.7866169 L74.8571429,44.7866169 L74.8571429,47.0169933 L72.7709375,47.0169933 L72.7709375,45.9195065 Z M74.2299554,41.3402251 L65.103125,41.3402251 L62.4383482,35.6999925 L71.0818304,35.6999925 L74.2299554,41.3402251 Z M19.1428571,43.6060043 L20.2923661,43.6060043 L20.2923661,47.0168517 L19.1428571,47.0168517 L19.1428571,43.6060043 Z M19.1428571,41.3402251 L19.1428571,35.6805918 L54.4162946,35.6805918 C55.5988839,35.6805918 56.3072321,36.1221355 56.7826786,37.1517905 L58.6933036,41.3402251 L19.1428571,41.3402251 Z M27.7192411,61.7343624 C25.3541964,61.7343624 23.4301786,59.6998342 23.4301786,57.199122 C23.4301786,54.6988346 25.3541964,52.6645897 27.7192411,52.6645897 C30.0834821,52.6645897 32.0070982,54.6988346 32.0070982,57.199122 C32.0070982,59.6998342 30.0834821,61.7343624 27.7192411,61.7343624 Z M66.3402232,61.7343624 C63.9751786,61.7343624 62.0511607,59.6998342 62.0511607,57.199122 C62.0511607,54.6988346 63.9751786,52.6645897 66.3402232,52.6645897 C68.7044643,52.6645897 70.6280804,54.6988346 70.6280804,57.199122 C70.6280804,59.6998342 68.7045982,61.7343624 66.3402232,61.7343624 Z M72.68,56.0666572 C72.1685268,52.8543487 69.5211607,50.3988105 66.3402232,50.3988105 C63.1586161,50.3988105 60.5108482,52.8543487 59.9991071,56.0666572 L34.0590179,56.0666572 C33.5474107,52.8543487 30.9001786,50.3988105 27.7192411,50.3988105 C24.8395089,50.3988105 22.3958482,52.4101144 21.5786161,55.1737986 C20.5769643,54.8445526 19.1428571,54.0777279 19.1428571,52.3826418 L19.1428571,49.2827726 L20.2923661,49.2827726 C21.4738839,49.2827726 22.4352232,48.266429 22.4352232,47.0169933 L22.4352232,43.6061459 L60.3747768,43.6061459 C60.9664732,43.6061459 61.4462054,43.0988946 61.4462054,42.4732563 L61.4462054,42.4188776 C61.4462054,42.2485193 61.4099107,42.0801436 61.3398661,41.9266371 L58.7104464,36.1626363 C57.8685714,34.3393921 56.4238839,33.4148125 54.4162946,33.4148125 L19.1428571,33.4148125 L19.1428571,33.3988105 C19.1428571,32.7741635 19.6235268,32.2659208 20.2142857,32.2659208 L66.4965179,32.2659208 C67.9262054,32.2659208 68.7947321,32.5988488 69.5735268,33.4342133 L60.7053125,33.4342133 C60.3340625,33.4342133 59.9891964,33.6374253 59.7939286,33.9713446 C59.5986607,34.3051222 59.5808482,34.7221672 59.7467857,35.0733629 L63.3777232,42.7587445 C63.4975893,43.2461702 63.9163839,43.6060043 64.4148661,43.6060043 L71.4905804,43.6060043 C70.9559375,44.2132332 70.6279464,45.0263647 70.6279464,45.9195065 L70.6279464,48.149883 C70.6279464,48.7755213 71.1076786,49.2827726 71.699375,49.2827726 L74.8571429,49.2827726 L74.8571429,56.0666572 L72.68,56.0666572 Z" fill-rule="nonzero"></path>
<path d="M66.081222,47 L27.0968602,47 C26.5138144,47 26.0410959,47.5708812 26.0410959,48.275 C26.0410959,48.9791187 26.5138144,49.55 27.0968602,49.55 L66.081222,49.55 C66.6642678,49.55 67.1369863,48.9791187 67.1369863,48.275 C67.1369863,47.5708812 66.6642678,47 66.081222,47 Z" fill-rule="nonzero"></path>
<path d="M29.862325,56.0515967 C29.2491741,56.0515967 28.7520472,56.5656979 28.7520472,57.1997847 C28.7520472,57.8084679 28.2735175,58.303624 27.6852091,58.303624 C27.0966231,58.303624 26.6178158,57.8084679 26.6178158,57.1997847 C26.6178158,56.5913886 27.0966231,56.096376 27.6852091,56.096376 C28.29836,56.096376 28.7954868,55.5822748 28.7954868,54.948188 C28.7954868,54.3141012 28.29836,53.8 27.6852091,53.8 C25.8722643,53.8 24.3972603,55.3250807 24.3972603,57.1997847 C24.3972603,59.0746322 25.8722643,60.6 27.6852091,60.6 C29.4978763,60.6 30.9726027,59.0746322 30.9726027,57.1997847 C30.9726027,56.5656979 30.4754759,56.0515967 29.862325,56.0515967 Z" fill-rule="nonzero"></path>
<path d="M68.492462,56.0515967 C67.8793111,56.0515967 67.3821842,56.5656979 67.3821842,57.1997847 C67.3821842,57.8084679 66.9036545,58.303624 66.3153461,58.303624 C65.7267601,58.303624 65.2479528,57.8084679 65.2479528,57.1997847 C65.2479528,56.5913886 65.7267601,56.096376 66.3153461,56.096376 C66.928497,56.096376 67.4256238,55.5822748 67.4256238,54.948188 C67.4256238,54.3141012 66.928497,53.8 66.3153461,53.8 C64.5024013,53.8 63.0273973,55.3250807 63.0273973,57.1997847 C63.0273973,59.0746322 64.5024013,60.6 66.3153461,60.6 C68.1280133,60.6 69.6027397,59.0746322 69.6027397,57.1997847 C69.6027397,56.5656979 69.1056129,56.0515967 68.492462,56.0515967 Z" fill-rule="nonzero"></path>
</g>
</svg>