<?xml version="1.0" encoding="UTF-8" standalone="no"?>
<svg width="51px" height="51px" viewBox="0 0 51 51" version="1.1" xmlns="http://www.w3.org/2000/svg" xmlns:xlink="http://www.w3.org/1999/xlink">
<title>Obometer/icon</title>
<defs>
<linearGradient x1="0.635245675%" y1="0%" x2="100%" y2="100%" id="obometerIconGradient">
<stop stop-color="#41A4FF" offset="0%"></stop>
<stop stop-color="#2A77F0" offset="100%"></stop>
</linearGradient>
</defs>
<g fill="url(#obometerIconGradient)" fill-rule="nonzero">
<path d="M10.3958746,12.2369325 C10.3958746,12.4549325 10.2167115,12.6316564 9.99570274,12.6316564 C9.77469392,12.6316564 9.59553088,12.4549325 9.59553088,12.2369325 C9.59553088,12.0189324 9.77469392,11.8422085 9.99570274,11.8422085 C10.2167115,11.8422085 10.3958746,12.0189324 10.3958746,12.2369325 Z M19.9999991,9.86858884 C19.9996582,11.6802491 19.4905127,13.4564017 18.5290474,15 L1.46235809,15 C-0.742005605,11.43448 -0.431089987,6.88607255 2.23857152,3.6447166 C4.90823302,0.403360656 9.3579899,-0.828378167 13.3475697,0.569630782 C17.3371494,1.96763973 20.0018086,5.69237729 19.9999991,9.86858884 Z M14.2400855,8.05033251 C14.0838184,7.89623942 13.8305095,7.89623942 13.6742425,8.05033251 L10.5104038,11.1711778 C9.97803169,10.9182378 9.33832876,11.0809627 8.99636509,11.5563126 C8.65440142,12.0316624 8.70991433,12.6809963 9.12775217,13.0931457 C9.54559,13.5052951 10.2038859,13.5600523 10.6857965,13.2227441 C11.167707,12.8854359 11.3326778,12.2544419 11.0762468,11.7293175 L14.2400855,8.6085511 C14.3963587,8.45440243 14.3963587,8.20448118 14.2400855,8.05033251 Z M18.3993117,9.86858884 C18.3993116,5.29058869 14.6368877,1.57938633 9.99570274,1.57938633 C5.35451773,1.57938633 1.59209388,5.29058869 1.59209381,9.86858884 C1.59209381,10.0865889 1.77125685,10.2633128 1.99226566,10.2633128 C2.21327447,10.2633128 2.39243752,10.0865889 2.39243752,9.86858884 C2.39243752,5.72658866 5.79653531,2.36883408 9.99570274,2.36883408 C14.1948702,2.36883408 17.598968,5.72658866 17.598968,9.86858884 C17.598968,10.0865889 17.778131,10.2633128 17.9991398,10.2633128 C18.2201486,10.2633128 18.3993117,10.0865889 18.3993117,9.86858884 Z"></path>
</g>
</svg>