<?xml version="1.0" encoding="UTF-8" standalone="no"?>
<svg width="51px" height="51px" viewBox="0 0 51 51" version="1.1" xmlns="http://www.w3.org/2000/svg" xmlns:xlink="http://www.w3.org/1999/xlink">
    <title>Promotional Part</title>
    <path d="M35,19 L20.125,19 L20.125,20.75 L19.25,20.75 L19.25,19 L14.875,19 C14.3917508,19 14,19.3917508 14,19.875 L14,22.5 C15.9329966,22.5 17.5,24.0670034 17.5,26 C17.5,27.9329966 15.9329966,29.5 14,29.5 L14,32.125 C14,32.6082492 14.3917508,33 14.875,33 L19.25,33 L19.25,31.25 L20.125,31.25 L20.125,33 L35,33 C35.4832492,33 35.875,32.6082492 35.875,32.125 L35.875,19.875 C35.875,19.3917508 35.4832492,19 35,19 Z M20.125,29.5 L19.25,29.5 L19.25,26.875 L20.125,26.875 L20.125,29.5 Z M20.125,25.125 L19.25,25.125 L19.25,22.5 L20.125,22.5 L20.125,25.125 Z M23.625,23.375 C23.625,22.4085017 24.4085017,21.625 25.375,21.625 C26.3414983,21.625 27.125,22.4085017 27.125,23.375 C27.125,24.3414983 26.3414983,25.125 25.375,25.125 C24.4085017,25.125 23.625,24.3414983 23.625,23.375 Z M24.5,29.80625 L31.5,21.6240375 L32.165,22.1927875 L25.165,30.375 L24.5,29.80625 Z M30.625,30.375 C29.6585017,30.375 28.875,29.5914983 28.875,28.625 C28.875,27.6585017 29.6585017,26.875 30.625,26.875 C31.5914983,26.875 32.375,27.6585017 32.375,28.625 C32.375,29.5914983 31.5914983,30.375 30.625,30.375 Z" fill-rule="nonzero"></path>
    <circle fill-rule="nonzero" cx="30.625" cy="28.625" r="1"></circle>
    <circle fill-rule="nonzero" cx="25.375" cy="23.375" r="1"></circle>
</svg>