<?xml version="1.0" encoding="UTF-8" standalone="no"?>
<svg width="93px" height="93px" viewBox="0 0 93 93" version="1.1" xmlns="http://www.w3.org/2000/svg" xmlns:xlink="http://www.w3.org/1999/xlink">
<title>Parts Icons</title>
<g fill="#000000" fill-rule="evenodd">
<path d="M65.9677419,25 L63.9354839,25 L50.3870968,25 L40.5245484,25 C39.6486452,25 38.8736774,25.5847742 38.5959355,26.4555484 L38.3825484,27.1290323 L36.1612903,27.1290323 C35.0408387,27.1290323 34.1290323,28.0842581 34.1290323,29.2580645 L34.1290323,30.1770968 C32.1733226,30.7895484 30.7419355,32.6900645 30.7419355,34.9354839 C30.7419355,36.418 31.3685484,37.7472258 32.354871,38.6584516 C30.8394839,39.8656129 29.8023548,41.6497419 29.4968387,43.631871 C27.4855806,44.206 26,46.1320645 26,48.4193548 C26,51.158 28.1277742,53.3870968 30.7419355,53.3870968 L30.7419355,57.6451613 L33.7937097,57.6451613 C34.0457097,58.6706452 34.4345484,59.6514194 34.9548065,60.5711613 L32.7945161,62.8350323 L36.6266774,66.8496774 L38.7876452,64.5865161 C39.6655806,65.1315484 40.6017742,65.5389032 41.5806452,65.8029032 L41.5806452,69 L47,69 L47,65.8029032 C47.978871,65.5389032 48.9150645,65.1315484 49.793,64.5865161 L51.9539677,66.8496774 L55.786129,62.8350323 L53.6258387,60.5711613 C54.1460968,59.6514194 54.5349355,58.6706452 54.7869355,57.6451613 L57.8387097,57.6451613 L57.8387097,51.9677419 L54.7869355,51.9677419 C54.5349355,50.9422581 54.1460968,49.9614839 53.6258387,49.0417419 L55.5740968,47 L63.9354839,47 L63.9354839,37.7741935 L63.9354839,36.3548387 L65.9677419,36.3548387 C67.0881935,36.3548387 68,35.3996129 68,34.2258065 L68,27.1290323 C68,25.9552258 67.0881935,25 65.9677419,25 Z M56.483871,26.4193548 C57.6043226,26.4193548 58.516129,27.3745806 58.516129,28.5483871 C58.516129,29.7221935 57.6043226,30.6774194 56.483871,30.6774194 C55.3634194,30.6774194 54.4516129,29.7221935 54.4516129,28.5483871 C54.4516129,27.3745806 55.3634194,26.4193548 56.483871,26.4193548 Z M51.7419355,26.4193548 L53.7918065,26.4193548 C53.3616452,27.0140645 53.0967742,27.7464516 53.0967742,28.5483871 C53.0967742,30.5049677 54.6162258,32.0967742 56.483871,32.0967742 C57.2493548,32.0967742 57.9484516,31.8192903 58.516129,31.3686452 L58.516129,36.3548387 L51.7419355,36.3548387 L51.7419355,26.4193548 Z M46.1979355,26.4193548 C45.9174839,27.2432903 45.1723226,27.8387097 44.2903226,27.8387097 C43.4083226,27.8387097 42.6631613,27.2432903 42.3827097,26.4193548 L46.1979355,26.4193548 Z M32.0967742,34.9354839 C32.0967742,32.9789032 33.6162258,31.3870968 35.483871,31.3870968 C37.3515161,31.3870968 38.8709677,32.9789032 38.8709677,34.9354839 C38.8709677,36.8920645 37.3515161,38.483871 35.483871,38.483871 C34.7895161,38.483871 34.1432581,38.2624516 33.6053871,37.8849032 L33.5870968,37.845871 C33.5803226,37.8494194 33.5749032,37.8536774 33.568129,37.8572258 C32.6813871,37.2163871 32.0967742,36.1469032 32.0967742,34.9354839 Z M33.5776129,39.4809677 C33.7557742,39.5632903 33.9400323,39.6349677 34.1290323,39.6945806 L34.1290323,44.9504516 C33.2815806,44.0456129 32.123871,43.5048387 30.8943548,43.4629677 C31.25,41.8264516 32.2220968,40.3850968 33.5776129,39.4809677 Z M30.7419355,51.9677419 C28.8742903,51.9677419 27.3548387,50.3759355 27.3548387,48.4193548 C27.3548387,46.4627742 28.8742903,44.8709677 30.7419355,44.8709677 C31.7641613,44.8709677 32.7254194,45.3641935 33.3635484,46.1810323 L32.7938387,46.777871 L34.954129,49.0417419 C34.433871,49.9614839 34.0450323,50.9422581 33.7930323,51.9677419 L31.4193548,51.9677419 L30.7419355,51.9677419 Z M53.7741935,46.8786452 L51.8950323,48.8472903 L52.2005484,49.3305806 C52.8779677,50.4029032 53.3440323,51.576 53.5838387,52.8186452 L53.6942581,53.3870968 L56.483871,53.3870968 L56.483871,56.2258065 L53.6942581,56.2258065 L53.5838387,56.7942581 C53.3440323,58.0369032 52.8779677,59.21 52.2005484,60.2823226 L51.8950323,60.7656129 L53.8710645,62.8357419 L51.9546452,64.8434194 L49.9786129,62.7732903 L49.5172903,63.0933548 C48.4937097,63.8030323 47.3739355,64.2912903 46.1877742,64.5425161 L45.6451613,64.6581935 L45.6451613,67.5806452 L42.9354839,67.5806452 L42.9354839,64.6581935 L42.392871,64.5425161 C41.2067097,64.2912903 40.0869355,63.8030323 39.0633548,63.0933548 L38.6020323,62.7732903 L36.626,64.8434194 L34.7095806,62.8357419 L36.6856129,60.7656129 L36.3800968,60.2823226 C35.7026774,59.21 35.2366129,58.0369032 34.9968065,56.7942581 L34.8863871,56.2258065 L32.0967742,56.2258065 L32.0967742,53.3870968 L34.8863871,53.3870968 L34.9968065,52.8186452 C35.2366129,51.576 35.7026774,50.4029032 36.3800968,49.3305806 L36.6856129,48.8472903 L34.7095806,46.7771613 L36.626,44.7694839 L38.6020323,46.8396129 L39.0633548,46.5195484 C40.0869355,45.809871 41.2067097,45.3216129 42.392871,45.0703871 L42.9354839,44.9547097 L42.9354839,42.0322581 L45.6451613,42.0322581 L45.6451613,44.9547097 L46.1877742,45.0703871 C47.3739355,45.3216129 48.4937097,45.809871 49.5172903,46.5195484 L49.9786129,46.8396129 L51.9546452,44.7694839 L53.7741935,46.6763871 L53.7741935,46.8786452 Z M62.5806452,45.5806452 L54.644,45.5806452 L51.9539677,42.7625161 L49.793,45.0256774 C48.9150645,44.4806452 47.978871,44.0732903 47,43.8092903 L47,40.6129032 L41.5806452,40.6129032 L41.5806452,43.81 C40.6017742,44.074 39.6655806,44.4813548 38.7876452,45.0263871 L36.6266774,42.7632258 L35.483871,43.9597419 L35.483871,39.9032258 C38.0980323,39.9032258 40.2258065,37.674129 40.2258065,34.9354839 C40.2258065,32.1968387 38.0980323,29.9677419 35.483871,29.9677419 L35.483871,29.2580645 C35.483871,28.8663226 35.7873548,28.5483871 36.1612903,28.5483871 L39.3593871,28.5483871 L39.8816774,26.9047742 C39.9744839,26.6138065 40.2332581,26.4193548 40.5245484,26.4193548 L40.9716452,26.4193548 C41.2866452,28.0367097 42.6550323,29.2580645 44.2903226,29.2580645 C45.9256129,29.2580645 47.294,28.0367097 47.609,26.4193548 L50.3870968,26.4193548 L50.3870968,34.2442581 C49.8194194,33.7936129 49.1203226,33.516129 48.3548387,33.516129 C46.4871935,33.516129 44.9677419,35.1079355 44.9677419,37.0645161 C44.9677419,39.0210968 46.4871935,40.6129032 48.3548387,40.6129032 C49.990129,40.6129032 51.3585161,39.3915484 51.6735161,37.7741935 L62.5806452,37.7741935 L62.5806452,45.5806452 Z M50.3870968,37.0645161 C50.3870968,38.2383226 49.4752903,39.1935484 48.3548387,39.1935484 C47.2343871,39.1935484 46.3225806,38.2383226 46.3225806,37.0645161 C46.3225806,35.8907097 47.2343871,34.9354839 48.3548387,34.9354839 C49.4752903,34.9354839 50.3870968,35.8907097 50.3870968,37.0645161 Z M66.6451613,34.2258065 C66.6451613,34.6175484 66.3416774,34.9354839 65.9677419,34.9354839 L63.9354839,34.9354839 L63.9354839,33.516129 L62.5806452,33.516129 L62.5806452,34.9354839 L62.5806452,36.3548387 L59.8709677,36.3548387 L59.8709677,28.5483871 C59.8709677,27.7464516 59.6060968,27.0140645 59.1759355,26.4193548 L62.5806452,26.4193548 L62.5806452,32.0967742 L63.9354839,32.0967742 L63.9354839,26.4193548 L65.9677419,26.4193548 C66.3416774,26.4193548 66.6451613,26.7372903 66.6451613,27.1290323 L66.6451613,34.2258065 Z"></path>
<path d="M30.5294118,46.5686275 C29.3943137,46.5686275 28.4705882,47.5363399 28.4705882,48.7254902 C28.4705882,49.9146405 29.3943137,50.8823529 30.5294118,50.8823529 C31.6645098,50.8823529 32.5882353,49.9146405 32.5882353,48.7254902 C32.5882353,47.5363399 31.6645098,46.5686275 30.5294118,46.5686275 Z M30.5294118,49.4444444 C30.1505882,49.4444444 29.8431373,49.1223529 29.8431373,48.7254902 C29.8431373,48.3286275 30.1505882,48.0065359 30.5294118,48.0065359 C30.9082353,48.0065359 31.2156863,48.3286275 31.2156863,48.7254902 C31.2156863,49.1223529 30.9082353,49.4444444 30.5294118,49.4444444 Z"></path>
<path d="M35.4705882,37.0784314 C36.6056863,37.0784314 37.5294118,36.110719 37.5294118,34.9215686 C37.5294118,33.7324183 36.6056863,32.7647059 35.4705882,32.7647059 C34.3354902,32.7647059 33.4117647,33.7324183 33.4117647,34.9215686 C33.4117647,36.110719 34.3354902,37.0784314 35.4705882,37.0784314 Z M35.4705882,34.2026144 C35.8494118,34.2026144 36.1568627,34.5247059 36.1568627,34.9215686 C36.1568627,35.3184314 35.8494118,35.6405229 35.4705882,35.6405229 C35.0917647,35.6405229 34.7843137,35.3184314 34.7843137,34.9215686 C34.7843137,34.5247059 35.0917647,34.2026144 35.4705882,34.2026144 Z"></path>
<path d="M44.1176471,47.4313725 C40.4848941,47.4313725 37.5294118,50.5275922 37.5294118,54.3333333 C37.5294118,58.1390745 40.4848941,61.2352941 44.1176471,61.2352941 C45.3667765,61.2352941 46.5836235,60.8667294 47.6364235,60.1689412 L46.9314824,59.0032 C46.0901647,59.5601882 45.1177412,59.854902 44.1176471,59.854902 C41.2115765,59.854902 38.8470588,57.3777882 38.8470588,54.3333333 C38.8470588,51.2888784 41.2115765,48.8117647 44.1176471,48.8117647 C47.0237176,48.8117647 49.3882353,51.2888784 49.3882353,54.3333333 C49.3882353,55.8006902 48.8447059,57.1817725 47.8577882,58.2239686 L48.7933176,59.1957647 C50.0266353,57.8940549 50.7058824,56.1671843 50.7058824,54.3333333 C50.7058824,50.5275922 47.7504,47.4313725 44.1176471,47.4313725 Z"></path>
<path d="M44.1176471,50.8823529 C41.8467647,50.8823529 40,52.8170588 40,55.1960784 C40,57.575098 41.8467647,59.5098039 44.1176471,59.5098039 C46.3885294,59.5098039 48.2352941,57.575098 48.2352941,55.1960784 C48.2352941,52.8170588 46.3885294,50.8823529 44.1176471,50.8823529 Z M44.1176471,58.0718954 C42.6037255,58.0718954 41.372549,56.7820915 41.372549,55.1960784 C41.372549,53.6100654 42.6037255,52.3202614 44.1176471,52.3202614 C45.6315686,52.3202614 46.8627451,53.6100654 46.8627451,55.1960784 C46.8627451,56.7820915 45.6315686,58.0718954 44.1176471,58.0718954 Z"></path>
</g>
</svg>