<?xml version="1.0" encoding="UTF-8" standalone="no"?>
<svg width="51px" height="51px" viewBox="0 0 51 51" version="1.1" xmlns="http://www.w3.org/2000/svg" xmlns:xlink="http://www.w3.org/1999/xlink">
<title>ServiceDate/icon</title>
<defs>
<linearGradient x1="0.635245675%" y1="0%" x2="100%" y2="100%" id="serviceDateIconGradient">
<stop stop-color="#41A4FF" offset="0%"></stop>
<stop stop-color="#2A77F0" offset="100%"></stop>
</linearGradient>
</defs>
<g fill="url(#serviceDateIconGradient)" fill-rule="nonzero">
<path d="M20.0035306,3.59891233 L20.0035306,6.79756826 C20.0035306,7.01838937 19.8245197,7.19740025 19.6036986,7.19740025 L16.4050427,7.19740025 C16.1842216,7.19740025 16.0052107,7.01838937 16.0052107,6.79756826 C16.0052107,6.57674715 16.1842216,6.39773627 16.4050427,6.39773627 L18.4613786,6.39773627 C16.8548445,2.63483806 12.9535556,0.38779262 8.89254334,0.886325026 C4.83153112,1.38485743 1.58958933,4.50881035 0.940913105,8.5485596 C0.292236883,12.5883088 2.39317154,16.5701855 6.09395305,18.3150555 C9.79473456,20.0599254 14.2033928,19.1472363 16.9072316,16.0764693 C17.0534373,15.9108535 17.3062186,15.8951184 17.4718344,16.0413241 C17.6374502,16.1875297 17.6531853,16.440311 17.5069796,16.6059268 C14.5637416,19.9505462 9.76282144,20.9445602 5.73350108,19.0435851 C1.70418072,17.14261 -0.581475139,12.8052519 0.128300523,8.4069173 C0.838076185,4.00858268 4.37205154,0.610360174 8.79480233,0.0733273389 C13.2175531,-0.463705497 17.4621004,1.99000934 19.2038666,6.0906653 L19.2038666,3.59891233 C19.2038666,3.37809122 19.3828775,3.19908034 19.6036986,3.19908034 C19.8245197,3.19908034 20.0035306,3.37809122 20.0035306,3.59891233 Z M10.0077308,3.99874432 C13.3200475,3.99874432 16.0052107,6.68390752 16.0052107,9.99622419 C16.0052107,13.3085409 13.3200475,15.9937041 10.0077308,15.9937041 C6.69541413,15.9937041 4.01025093,13.3085409 4.01025093,9.99622419 C4.01025093,6.68390752 6.69541413,3.99874432 10.0077308,3.99874432 Z M10.0077308,6.39773627 C9.78690969,6.39773627 9.60789881,6.57674715 9.60789881,6.79756826 L9.60789881,9.99622419 L9.60789881,9.99718379 C9.60833642,10.1007612 9.64916086,10.2000825 9.721691,10.2740275 L9.72480969,10.2785056 L11.3241377,11.8778335 C11.4810233,12.0293588 11.7304009,12.0271917 11.8846296,11.872963 C12.0388583,11.7187343 12.0410253,11.4693567 11.8895001,11.3124711 L10.4075628,9.83053382 L10.4075628,6.79756826 C10.4075628,6.57674715 10.2285519,6.39773627 10.0077308,6.39773627 Z"></path>
</g>
</svg>