<?xml version="1.0" encoding="UTF-8" standalone="no"?>
<svg width="93px" height="93px" viewBox="0 0 93 93" version="1.1" xmlns="http://www.w3.org/2000/svg" xmlns:xlink="http://www.w3.org/1999/xlink">
<title>Service</title>
<g fill="#000000" fill-rule="nonzero">
<path d="M36.3641624,32.9623391 L28.2478721,24.6267752 L28.7620416,23.218626 C28.857938,22.9558922 28.7955006,22.6598342 28.6023347,22.4613737 L27.3913806,21.2176928 C27.1193008,20.9383341 26.678264,20.9382599 26.4060396,21.2176928 L24.8846327,22.7802168 L21.703936,19.5135598 L28.7563326,12.2714584 C29.433461,11.5752139 30.2903138,11.0421017 31.2340298,10.7296415 C32.0397186,10.463271 32.7828254,9.99651027 33.3830632,9.38005068 C34.4213749,8.31390066 34.9802045,6.89610297 34.9570073,5.38790704 C34.93381,3.87985954 34.330248,2.47994853 33.2576825,1.4460836 C33.082583,1.27738475 32.8355793,1.21318567 32.6035346,1.27590038 C32.3714898,1.33861508 32.1872849,1.51956 32.115742,1.75483293 L31.2322955,4.66383049 C31.1232467,5.02297424 30.884409,5.3171025 30.5595753,5.4919615 C30.2345971,5.66696893 29.862863,5.70148057 29.5133867,5.58955894 C28.9363462,5.40445778 28.5485691,4.86407224 28.5485691,4.24523765 C28.5485691,4.10348015 28.5698152,3.96172265 28.6117292,3.82382451 L29.4849141,0.948299529 C29.556746,0.711616451 29.504209,0.45355842 29.3459474,0.26637914 C29.1877581,0.0791256423 28.9462465,-0.0109015052 28.7081315,0.0291023138 C27.7114448,0.195277733 26.7875295,0.642073634 26.0364735,1.32087684 C24.7140859,2.51497971 24.0413658,4.29778441 24.2369164,6.08949535 C24.4366584,7.92922572 23.7980476,9.75782329 22.48491,11.1064493 L18.0013375,15.7110447 L8.32078675,5.76887105 L8.14532595,3.8190003 C8.12538066,3.59686407 8.00570888,3.39714185 7.82186528,3.27861476 L2.9014474,0.109332608 C2.6261156,-0.0679013809 2.26818425,-0.026264753 2.03852428,0.20960192 L0.20406288,2.09356656 C-0.0256693555,2.32950745 -0.066065807,2.69711212 0.106504365,2.97966229 L3.19246084,8.0329833 C3.30772442,8.22186961 3.50233559,8.34477559 3.71855416,8.36525992 L5.61711512,8.54538843 L15.2980272,18.4880816 L8.24591962,25.7298119 C7.56828541,26.425908 6.71114353,26.9587975 5.76692164,27.2711093 C4.95053754,27.5411166 4.22759281,27.9954827 3.61781596,28.6215908 C2.57964884,29.687815 2.02074695,31.1055385 2.04401646,32.6134375 C2.06735824,34.1211139 2.67077572,35.5208023 3.74334125,36.5547414 C3.91836845,36.7234403 4.16537216,36.7875651 4.39734463,36.7250731 C4.62938936,36.6623584 4.81359429,36.4816361 4.88520946,36.2463632 L5.76966773,33.3379594 C5.87878873,32.9783703 6.11762643,32.6840194 6.44224335,32.5090862 C6.75854974,32.3386061 7.11966077,32.3014226 7.46198276,32.4031763 C7.47087142,32.4064419 7.47983235,32.4094848 7.48893781,32.4124536 C8.21101535,32.6436445 8.61541346,33.4358537 8.39037849,34.1780396 L7.51719365,37.0525997 C7.44528941,37.2892828 7.49775421,37.5474893 7.65608807,37.7347428 C7.78956257,37.8927541 7.9821503,37.9812969 8.18218139,37.9812969 C8.21932589,37.9812969 8.25675946,37.978254 8.29412075,37.9720196 C9.28914534,37.8058442 10.2126993,37.359642 10.965851,36.680913 C12.2867933,35.4870328 12.9594412,33.7040797 12.7650468,31.911107 C12.5646544,30.0723415 13.2032652,28.2438924 14.5169809,26.8945242 L19.0005535,22.290671 L22.1808888,25.5569568 L20.6594818,27.1194808 C20.3874019,27.3991364 20.3874019,27.8521667 20.6594818,28.1315996 L21.8704359,29.375429 C22.063674,29.5738895 22.3523027,29.6377917 22.6077615,29.539452 L23.9790006,29.0113868 L32.0951463,37.3469506 C32.5190561,37.7823169 33.0759346,38 33.6327408,38 C34.189547,38 34.7463531,37.7823911 35.1703352,37.3469506 L36.3643792,36.1206369 C37.2119097,35.249756 37.2119097,33.8329974 36.3641624,32.9623391 Z M23.4701065,12.1181971 C25.0844469,10.4603764 25.8686729,8.20502199 25.6216692,5.93029648 C25.4767767,4.60245172 25.9757704,3.28091554 26.9567755,2.39511669 C27.2001659,2.17513279 27.4685602,1.98802773 27.75531,1.83706712 L27.2814647,3.39729028 C27.1975644,3.67330921 27.1551445,3.95838281 27.1551445,4.24486656 C27.1551445,5.49322321 27.9358294,6.582381 29.098221,6.9553294 C30.5544444,7.42157057 32.1085877,6.58468177 32.56256,5.08947409 L33.0546885,3.468837 C33.3768484,4.05494119 33.5529596,4.71719366 33.5636549,5.41032105 C33.5809264,6.5276819 33.1667724,7.57809757 32.39765,8.36785757 C31.9467128,8.83098156 31.4115863,9.16719177 30.8066513,9.36721086 C29.653076,9.74899128 28.6031296,10.403525 27.7707026,11.259488 L20.718595,18.5012925 L18.9866785,16.7225698 L23.4701065,12.1181971 Z M13.5315677,25.8825538 C11.9164323,27.5413392 11.1322786,29.7967679 11.3801495,32.0698606 C11.524247,33.3987444 11.025181,34.7208743 10.0459826,35.6058568 C9.80201406,35.8256922 9.53369201,36.0125004 9.24686998,36.1633126 L9.72064303,34.6038316 C10.1701349,33.1211669 9.37319019,31.5400141 7.94160932,31.0585581 C7.92903511,31.0538081 7.9164609,31.0492808 7.90352537,31.0451245 C7.19806891,30.8195 6.44925311,30.8892655 5.79503294,31.2417296 C5.14066824,31.5943421 4.65923504,32.1875713 4.43961998,32.911722 L3.94669655,34.5324333 C3.62431986,33.9463292 3.44806415,33.2839283 3.43736884,32.5908009 C3.42009737,31.4735884 3.83425133,30.4233954 4.60337376,29.6334128 C5.05510581,29.1694724 5.59037686,28.8328911 6.19422793,28.6331689 C7.34787543,28.2516111 8.39818317,27.5975227 9.23133288,26.7416339 L16.2834404,19.4998294 L18.0152847,21.2784779 L13.5315677,25.8825538 Z M6.35458522,7.2791451 C6.21850916,7.1393915 6.04023001,7.06955181 5.86187859,7.06955181 C5.78383178,7.06955181 5.7057127,7.08298537 5.63135143,7.10970406 L4.18979792,6.97291921 L1.58195043,2.70238164 L2.63139098,1.6245793 L6.78962393,4.30297971 L6.92280937,5.78364055 C6.89715509,5.85904663 6.88364143,5.93883162 6.88364143,6.02017519 C6.88364143,6.20995212 6.95706325,6.3919361 7.08764713,6.52612331 L23.8991471,23.792113 L23.166013,24.5451348 L6.35458522,7.2791451 Z M23.7682019,27.5638274 L22.5383865,28.0374163 L22.1372404,27.6254289 L26.898674,22.735463 L27.2998201,23.1474503 L26.8386936,24.4104281 L23.7682019,27.5638274 Z M35.3787491,35.1084438 L34.1847052,36.3347575 C33.8803226,36.6473662 33.3847976,36.6473662 33.0802705,36.3347575 L25.1395133,28.1794706 L27.4379919,25.8188742 L35.3787491,33.9742353 C35.6832762,34.2869183 35.6832762,34.7956867 35.3787491,35.1084438 Z"></path>
</g>
</svg>