<?xml version="1.0" encoding="UTF-8" standalone="no"?>
<svg width="51px" height="51px" viewBox="0 0 51 51" version="1.1" xmlns="http://www.w3.org/2000/svg" xmlns:xlink="http://www.w3.org/1999/xlink">
    <title>Umbrella &amp; Chairs</title>
    <g id="outdoor-seat">
      <path d="M19.77904,12.842 C19.5813974,12.7436833 19.3414617,12.8236499 19.24232,13.02088 L17.75288,16 L14.8,16 C14.6662583,16.0000157 14.5413732,16.0668712 14.4672,16.17816 L12.8672,18.57816 C12.7863498,18.6970538 12.7755296,18.8501928 12.838859,18.9792736 C12.9021884,19.1083545 13.029923,19.1935161 13.1734316,19.2023354 C13.3169402,19.2111548 13.4541415,19.142275 13.5328,19.02192 L15.01424,16.8 L17.712,16.8 L18.4208,18.92656 C18.4629476,19.0659449 18.5775125,19.1714135 18.7199006,19.2019124 C18.8622887,19.2324113 19.0100022,19.1831215 19.1055439,19.0732291 C19.2010855,18.9633366 19.2293594,18.8102048 19.17936,18.67344 L18.432,16.4308 L19.958,13.37872 C20.0054582,13.2838177 20.0132647,13.1739475 19.9797017,13.0732884 C19.9461387,12.9726293 19.8739564,12.88943 19.77904,12.842 Z"></path>
      <path d="M5.53296,16.17792 C5.45870039,16.0666754 5.33375293,15.9999087 5.2,16 L2.24744,16 L0.758,13.02088 C0.694078044,12.8930504 0.566815422,12.8090329 0.424150733,12.8004761 C0.281486044,12.7919193 0.14509345,12.8601232 0.0663507235,12.9793961 C-0.0123920027,13.098669 -0.021521967,13.2508904 0.0424,13.37872 L1.568,16.4308 L0.82048,18.67328 C0.770480593,18.8100448 0.798754497,18.9631766 0.894296132,19.0730691 C0.989837766,19.1829615 1.13755128,19.2322513 1.27993938,19.2017524 C1.42232748,19.1712535 1.53689244,19.0657849 1.57904,18.9264 L2.288,16.8 L4.98608,16.8 L6.46736,19.02184 C6.59078078,19.2033357 6.83739814,19.2514784 7.02001675,19.1297253 C7.20263536,19.0079722 7.25303512,18.7618062 7.13296,18.57808 L5.53296,16.17792 Z"></path>
      <path d="M10.8,18.4 L10.4,18.4 L10.4,14.4 L13.6,14.4 C14.0418278,14.4 14.4,14.0418278 14.4,13.6 L14.4,12.8 C14.4,12.3581722 14.0418278,12 13.6,12 L10.4,12 L10.4,9.6 L18.4,9.6 L18.4,9.2 C18.3978259,4.71904072 14.8760438,1.03007958 10.4,0.82024 L10.4,0.4 C10.4,0.1790861 10.2209139,1.3527075e-17 10,0 C9.7790861,-1.3527075e-17 9.6,0.1790861 9.6,0.4 L9.6,0.82024 C5.1239744,1.03011951 1.60221478,4.71905705 1.6,9.2 L1.6,9.6 L9.6,9.6 L9.6,12 L6.4,12 C5.9581722,12 5.6,12.3581722 5.6,12.8 L5.6,13.6 C5.6,14.0418278 5.9581722,14.4 6.4,14.4 L9.6,14.4 L9.6,18.4 L9.2,18.4 C8.9790861,18.4 8.8,18.5790861 8.8,18.8 C8.8,19.0209139 8.9790861,19.2 9.2,19.2 L10.8,19.2 C11.0209139,19.2 11.2,19.0209139 11.2,18.8 C11.2,18.5790861 11.0209139,18.4 10.8,18.4 Z"></path>
  </g>
</svg>