<?xml version="1.0" encoding="UTF-8" standalone="no"?>
<svg width="93px" height="93px" viewBox="0 0 93 93" version="1.1" xmlns="http://www.w3.org/2000/svg" xmlns:xlink="http://www.w3.org/1999/xlink">
<title>Used Bus Icon</title>
<g fill="#000000" fill-rule="nonzero">
<path d="M72.6568581,53.9870263 L72.6568581,33.8004994 C72.6568581,31.7049071 71.0051152,30 68.9746348,30 L25.1561462,30 C23.1257712,30 21.4740284,31.7047983 21.4740284,33.8004994 L21.4740284,53.9680853 C20.648737,54.0462441 20,54.7638247 20,55.6356547 L20,57.9686626 C20,58.892417 20.7281548,59.6437431 21.6231609,59.6437431 L26.231398,59.6437431 C27.126404,59.6437431 27.8543479,58.8921993 27.8543479,57.9686626 L27.8543479,57.6719204 L28.8619944,57.6719204 C29.2732163,60.6788575 31.7815746,63 34.8066234,63 C37.8316722,63 40.3400306,60.6790752 40.7512524,57.6719204 L52.2959447,57.6719204 C52.7071666,60.6788575 55.215525,63 58.2405737,63 C61.2656225,63 63.7739809,60.6790752 64.1852028,57.6719204 L65.4597901,57.6719204 L65.4597901,57.9686626 C65.4597901,58.892417 66.1879449,59.6437431 67.082951,59.6437431 L72.3768391,59.6437431 C73.2718452,59.6437431 74,58.8921993 74,57.9686626 L74,55.6356547 C73.9998945,54.8106329 73.4185519,54.1246207 72.6568581,53.9870263 Z M70.9711544,39.4495962 L70.9711544,46.7238085 L68.818225,46.7238085 C68.660444,46.7238085 68.5319833,46.5912216 68.5319833,46.4283726 L68.5319833,39.4495962 L70.9711544,39.4495962 Z M70.9710489,37.7097463 L68.5320888,37.7097463 L68.5320888,34.9659148 C68.5320888,34.8030658 68.6605495,34.6704788 68.8183304,34.6704788 L70.9710489,34.6704788 L70.9710489,37.7097463 Z M23.1597321,33.8004994 C23.1597321,32.6642575 24.0552655,31.73985 25.1561462,31.73985 L68.9745293,31.73985 C69.7739809,31.73985 70.4632178,32.2285058 70.7818383,32.9306289 L68.818225,32.9306289 C67.7308443,32.9306289 66.8462796,33.8436065 66.8462796,34.9659148 L66.8462796,35.320242 L23.1597321,35.320242 L23.1597321,33.8004994 Z M62.5596161,37.0599831 L62.5596161,40.9482207 C62.5596161,41.0111396 62.5100459,41.0620844 62.449296,41.0620844 L54.440753,41.0620844 C54.3800032,41.0620844 54.3305384,41.0110308 54.3305384,40.9482207 L54.3305384,37.0599831 L62.5596161,37.0599831 Z M49.3217318,37.0599831 L49.3217318,40.9482207 C49.3217318,41.0111396 49.272267,41.0620844 49.2114117,41.0620844 L41.2029742,41.0620844 C41.1420134,41.0620844 41.0926541,41.0110308 41.0926541,40.9482207 L41.0926541,37.0599831 L49.3217318,37.0599831 Z M36.083742,37.0599831 L36.083742,40.9482207 C36.083742,41.0111396 36.0342773,41.0620844 35.9734219,41.0620844 L27.964879,41.0620844 C27.9039182,41.0620844 27.8545589,41.0110308 27.8545589,40.9482207 L27.8545589,37.0599831 L36.083742,37.0599831 Z M23.1597321,45.7738197 L62.0994568,45.7738197 C62.3532142,45.7738197 62.5596161,45.9868515 62.5596161,46.2488686 C62.5596161,46.5107768 62.3532142,46.7238085 62.0994568,46.7238085 L23.1597321,46.7238085 L23.1597321,45.7738197 Z M23.1597321,51.8245962 L25.5986922,51.8245962 L25.5986922,53.9603565 L23.1597321,53.9603565 L23.1597321,51.8245962 Z M26.1688551,57.904002 L21.6857037,57.904002 L21.6857037,55.7002065 L26.1688551,55.7002065 L26.1688551,57.904002 Z M34.8066234,61.26015 C32.4250382,61.26015 30.4873701,59.2603512 30.4873701,56.8020498 C30.4873701,54.3439661 32.4249328,52.3440584 34.8066234,52.3440584 C37.1883141,52.3440584 39.1258767,54.3438572 39.1258767,56.8020498 C39.1258767,59.2603512 37.1882086,61.26015 34.8066234,61.26015 Z M58.2403628,61.26015 C55.8587776,61.26015 53.9211095,59.2603512 53.9211095,56.8020498 C53.9211095,54.3439661 55.8586722,52.3440584 58.2403628,52.3440584 C60.621948,52.3440584 62.5596161,54.3438572 62.5596161,56.8020498 C62.5596161,59.2603512 60.6220535,61.26015 58.2403628,61.26015 Z M66.8462796,51.5156621 L66.8462796,53.9801684 C66.0631757,54.0989306 65.4594737,54.7949576 65.4594737,55.6355459 L65.4594737,55.9321792 L64.1848864,55.9321792 C63.7736645,52.9252421 61.2653061,50.6043173 58.2402573,50.6043173 C55.2152086,50.6043173 52.7068502,52.9251333 52.2956283,55.9321792 L40.7512524,55.9321792 C40.3400306,52.9252421 37.8316722,50.6043173 34.8066234,50.6043173 C31.7815746,50.6043173 29.2732163,52.9251333 28.8619944,55.9321792 L27.8543479,55.9321792 L27.8543479,55.6355459 C27.8543479,55.1243568 27.6307546,54.6666161 27.2798608,54.3590971 C27.2816537,54.3292705 27.2842905,54.2995527 27.2842905,54.2692907 L27.2842905,51.5156621 C27.2842905,50.7265629 26.6623425,50.0846374 25.8980119,50.0846374 L23.1597321,50.0846374 L23.1597321,48.4635496 L62.0994568,48.4635496 C63.2827084,48.4635496 64.2453198,47.4701272 64.2453198,46.2487597 C64.2453198,45.0273922 63.2827084,44.033752 62.0994568,44.033752 L23.1597321,44.033752 L23.1597321,37.0597654 L26.1687497,37.0597654 L26.1687497,40.948003 C26.1687497,41.9702723 26.9745293,42.8017166 27.9647735,42.8017166 L35.973211,42.8017166 C36.9636661,42.8017166 37.7692348,41.9700546 37.7692348,40.948003 L37.7692348,37.0597654 L39.4065285,37.0597654 L39.4065285,40.948003 C39.4065285,41.9702723 40.2123082,42.8017166 41.2025523,42.8017166 L49.2109898,42.8017166 C50.2014449,42.8017166 51.0070137,41.9700546 51.0070137,40.948003 L51.0070137,37.0597654 L52.6443073,37.0597654 L52.6443073,40.948003 C52.6443073,41.9702723 53.4499815,42.8017166 54.4402257,42.8017166 L62.4486632,42.8017166 C63.4391183,42.8017166 64.244687,41.9700546 64.244687,40.948003 L64.244687,37.0597654 L66.8456468,37.0597654 L66.8456468,46.4282637 C66.8456468,47.550572 67.7302115,48.4635496 68.8175922,48.4635496 L70.9703106,48.4635496 L70.9703106,50.0846374 L68.2319253,50.0846374 C67.4683331,50.0846374 66.8462796,50.7265629 66.8462796,51.5156621 Z M70.9711544,51.8245962 L70.9711544,53.9603565 L68.5321943,53.9603565 L68.5321943,51.8245962 L70.9711544,51.8245962 Z M72.3141908,57.904002 L67.1453884,57.904002 L67.1453884,55.7002065 L72.3141908,55.7002065 L72.3141908,57.904002 Z"></path>
<path d="M34.8635873,54 C33.2845504,54 32,55.3284666 32,56.9614877 C32,58.5945088 33.2845504,59.9230769 34.8635873,59.9230769 C36.4426242,59.9230769 37.7272727,58.5945088 37.7272727,56.9614877 C37.7272727,55.3285681 36.4426242,54 34.8635873,54 Z M34.8635873,58.3005122 C34.1497519,58.3005122 33.5689262,57.6998293 33.5689262,56.9614877 C33.5689262,56.2232477 34.1497519,55.6225647 34.8635873,55.6225647 C35.5775209,55.6225647 36.1583465,56.2232477 36.1583465,56.9614877 C36.1583465,57.6998293 35.5775209,58.3005122 34.8635873,58.3005122 Z"></path>
<path d="M58.0454545,53.6923077 C56.4663906,53.6923077 55.1818182,55.0207743 55.1818182,56.6537954 C55.1818182,58.2868165 56.4663906,59.6153846 58.0454545,59.6153846 C59.6245185,59.6153846 60.9090909,58.2868165 60.9090909,56.6537954 C60.9091891,55.0208758 59.6246167,53.6923077 58.0454545,53.6923077 Z M58.0454545,57.9928199 C57.3316069,57.9928199 56.7507713,57.392137 56.7507713,56.6537954 C56.7507713,55.9155554 57.3316069,55.3148724 58.0454545,55.3148724 C58.7593022,55.3148724 59.3401378,55.9155554 59.3401378,56.6537954 C59.340236,57.392137 58.7594985,57.9928199 58.0454545,57.9928199 Z"></path>
<path d="M48.6284171,50.8461538 L43.7352193,50.8461538 C43.2788433,50.8461538 42.9090909,51.2248691 42.9090909,51.6923077 C42.9090909,52.1597463 43.2788433,52.5384615 43.7352193,52.5384615 L48.6284171,52.5384615 C49.0846897,52.5384615 49.4545455,52.1597463 49.4545455,51.6923077 C49.4544421,51.224975 49.0846897,50.8461538 48.6284171,50.8461538 Z"></path>
<path d="M51.0783962,47.4615385 L42.103422,47.4615385 C41.6446274,47.4615385 41.2727273,47.8402537 41.2727273,48.3076923 C41.2727273,48.7751309 41.6445234,49.1538462 42.103422,49.1538462 L51.0783962,49.1538462 C51.5372948,49.1538462 51.9090909,48.7751309 51.9090909,48.3076923 C51.9090909,47.8402537 51.5371908,47.4615385 51.0783962,47.4615385 Z"></path>
</g>
</svg>