<?xml version="1.0" encoding="UTF-8" standalone="no"?>
<svg width="51px" height="51px" viewBox="0 0 51 51" version="1.1" xmlns="http://www.w3.org/2000/svg" xmlns:xlink="http://www.w3.org/1999/xlink">
<title>User</title>
<defs>
<linearGradient x1="0.635245675%" y1="0%" x2="100%" y2="100%" id="userGradientIcon">
<stop stop-color="#41A4FF" offset="0%"></stop>
<stop stop-color="#2A77F0" offset="100%"></stop>
</linearGradient>
</defs>
<g fill="url(#userGradientIcon)" fill-rule="nonzero">
<path d="M8.5,10.7368421 C10.6072842,10.7368421 12.5263158,7.75164211 12.5263158,4.47368421 C12.5263158,1.63065789 11.0589474,0 8.5,0 C5.94105263,0 4.47368421,1.63065789 4.47368421,4.47368421 C4.47368421,7.75164211 6.39271579,10.7368421 8.5,10.7368421 Z"></path>
<path d="M16.3533737,13.0278158 C15.2067684,12.3360053 12.8039526,10.9111368 11.3556421,10.2264842 C10.643897,11.0758271 9.60719477,11.5859277 8.5,11.6315789 C7.38942721,11.5854499 6.34996645,11.0725106 5.63773684,10.2191474 C4.18137368,10.9009368 1.78419474,12.3326053 0.6426,13.0270105 C0.243002941,13.2704312 -0.000603733079,13.7047309 -4.96678309e-16,14.1726316 L-4.96678309e-16,14.9732421 C-0.000607249526,15.6309912 0.476161429,16.1919847 1.1254,16.2974526 C3.5634146,16.7093721 6.02806235,16.9441689 8.5,17 C10.9719377,16.9441689 13.4365854,16.7093721 15.8746,16.2974526 C16.5239055,16.1919739 17.0006951,15.6308799 17,14.9730632 L17,14.1757632 C17.0006004,13.7062167 16.7552509,13.2706509 16.3533737,13.0278158 Z"></path>
</g>
</svg>