<?xml version="1.0" encoding="UTF-8" standalone="no"?>
<svg width="51px" height="51px" viewBox="0 0 51 51" version="1.1" xmlns="http://www.w3.org/2000/svg" xmlns:xlink="http://www.w3.org/1999/xlink">
    <title>Wi-Fi</title>
    <path d="M10.8,3.9933 C7.53674365,3.98597422 4.50068029,5.66299016 2.76939,8.42913 C2.64352053,8.63891619 2.70831422,8.91082916 2.91526492,9.04130819 C3.12221562,9.17178721 3.39549526,9.11302394 3.53052,8.90901 C5.10229547,6.40986349 7.84763195,4.8933187 10.799955,4.8933187 C13.7522781,4.8933187 16.4976145,6.40986349 18.06939,8.90901 C18.2044147,9.11302394 18.4776944,9.17178721 18.6846451,9.04130819 C18.8915958,8.91082916 18.9563895,8.63891619 18.83052,8.42913 C17.0992466,5.66301737 14.0632244,3.98600533 10.8,3.9933 Z"></path>
    <path d="M11.025,8.21997 C8.9596793,8.22726049 7.03886539,9.28103305 5.92299,11.01897 C5.78706996,11.2272117 5.84569827,11.50621 6.05394,11.64213 C6.26218173,11.77805 6.54117996,11.7194217 6.6771,11.51118 C7.62117991,10.0219431 9.26177721,9.11949607 11.025045,9.11949607 C12.7883128,9.11949607 14.4289101,10.0219431 15.37299,11.51118 C15.4609148,11.6458888 15.614027,11.7234575 15.7746507,11.7146667 C15.9352743,11.705876 16.0790069,11.6120613 16.1517057,11.4685617 C16.2244045,11.3250622 16.2150249,11.1536788 16.1271,11.01897 C15.0112073,9.28100629 13.0903527,8.22723 11.025,8.21997 Z"></path>
    <path d="M21.528,6.021 C19.1985637,2.34655293 15.1506131,0.119925696 10.8,0.119925696 C6.44938685,0.119925696 2.4014363,2.34655293 0.072,6.021 C-0.0152978469,6.15604639 -0.023917991,6.32740725 0.0493866926,6.4705326 C0.122691376,6.61365795 0.266784162,6.70680365 0.427386693,6.7148826 C0.587989223,6.72296156 0.740702153,6.64474639 0.828,6.5097 C2.99159055,3.09183446 6.75488827,1.02015426 10.8,1.02015426 C14.8451117,1.02015426 18.6084094,3.09183446 20.772,6.5097 C20.8549352,6.63795673 20.9972648,6.71539082 21.15,6.71535 C21.2367299,6.71570215 21.3216683,6.69067426 21.39435,6.64335 C21.4946233,6.5785624 21.5650429,6.47658491 21.5901088,6.35986361 C21.6151748,6.24314231 21.5928326,6.12124418 21.528,6.021 Z"></path>
    <circle cx="10.80018" cy="14.96997" r="2.25"></circle>
</svg>