<svg style="position: absolute; width: 0; height: 0; overflow: hidden;" version="1.1" xmlns="http://www.w3.org/2000/svg" xmlns:xlink="http://www.w3.org/1999/xlink">
<defs>
<symbol id="icon-LiftedLogic" viewBox="0 0 221 32">
<title>Lifted Logic Web Design in Kansas City</title>
<path d="M186.049 3.818h-9.095l-11.116 20.884h20.547v-6.625h-8.982z"></path>
<path d="M192.561 3.818h9.095l11.116 20.884h-20.547v-6.625h8.926z"></path>
<path d="M7.691 4.323h4.098v16.112h9.825v3.537h-13.923v-19.649z"></path>
<path d="M27.958 7.691h-3.818v-3.481h3.874l-0.056 3.481zM24.14 9.432h3.874v14.54h-3.874v-14.54z"></path>
<path d="M37.67 4.154l0.786 0.056v3.088c-0.225 0-0.561-0.056-1.067-0.056-0.393-0.056-0.786 0.056-1.011 0.337-0.168 0.225-0.281 0.505-0.281 0.786v1.235h2.47v2.695h-2.526v11.733h-3.761v-11.789h-2.133v-2.695h2.077v-0.954c0-1.572 0.281-2.639 0.786-3.2 0.561-0.898 1.909-1.291 3.986-1.291 0.281 0 0.505 0 0.674 0.056z"></path>
<path d="M40.365 12.295v-2.751h2.021v-4.042h3.761v4.042h2.358v2.695h-2.358v7.691c-0.056 0.393 0 0.786 0.225 1.123 0.449 0.225 0.898 0.281 1.404 0.225h0.786v2.807l-1.797 0.056c-1.797 0.056-3.032-0.225-3.705-0.954-0.449-0.561-0.674-1.291-0.618-2.021v-8.982h-2.077z"></path>
<path d="M60.463 9.712c1.011 0.449 1.909 1.235 2.526 2.133s1.011 1.909 1.179 3.032c0.112 0.954 0.168 1.909 0.112 2.863h-10.611c0.056 1.46 0.561 2.47 1.516 3.088 0.618 0.393 1.347 0.561 2.077 0.561 1.235 0.112 2.358-0.561 2.919-1.684h3.874c-0.168 1.011-0.674 1.909-1.404 2.639-1.291 1.404-3.144 2.133-5.502 2.133-1.853 0-3.705-0.618-5.109-1.797-1.516-1.179-2.246-3.144-2.246-5.839 0-2.526 0.674-4.435 2.021-5.782 1.404-1.347 3.256-2.077 5.221-2.021 1.123 0 2.302 0.225 3.425 0.674zM54.737 13.025c-0.561 0.618-0.898 1.403-1.011 2.246h6.568c0-0.898-0.393-1.684-1.011-2.302-0.618-0.505-1.404-0.786-2.246-0.786-0.842-0.056-1.684 0.225-2.302 0.842z"></path>
<path d="M73.881 9.656c0.674 0.393 1.291 0.954 1.684 1.628v-6.961h3.874v19.649h-3.705v-2.021c-0.449 0.786-1.067 1.404-1.853 1.853-0.786 0.393-1.684 0.618-2.582 0.561-1.684 0-3.256-0.73-4.267-2.077-1.179-1.516-1.796-3.368-1.74-5.277 0-2.47 0.561-4.435 1.74-5.839 1.123-1.403 2.807-2.189 4.603-2.133 0.73 0.056 1.516 0.225 2.246 0.618zM74.835 20.042c0.618-0.898 0.898-2.021 0.842-3.088 0-1.796-0.449-3.032-1.347-3.818-0.561-0.449-1.235-0.73-1.909-0.674-1.011-0.056-1.909 0.449-2.47 1.235-0.561 0.954-0.842 2.021-0.786 3.144-0.056 1.123 0.225 2.246 0.786 3.2 0.505 0.786 1.46 1.291 2.414 1.235 0.954 0 1.909-0.449 2.47-1.235v0z"></path>
<path d="M90.218 4.323h4.098v16.112h9.825v3.537h-13.923v-19.649z"></path>
<path d="M118.175 22.175c-1.235 1.516-3.088 2.246-5.614 2.246s-4.379-0.73-5.614-2.246c-1.235-1.572-1.909-3.481-1.853-5.502-0.056-1.965 0.618-3.93 1.853-5.446s3.088-2.302 5.614-2.302c2.526 0 4.379 0.786 5.614 2.302 1.235 1.572 1.909 3.481 1.853 5.446 0.056 2.021-0.618 3.986-1.853 5.502zM115.144 20.098c0.674-1.011 0.954-2.189 0.898-3.368 0.056-1.179-0.225-2.358-0.898-3.368-1.179-1.403-3.312-1.572-4.772-0.393-0.112 0.112-0.281 0.225-0.393 0.393-0.674 1.011-0.954 2.189-0.898 3.368-0.056 1.179 0.225 2.358 0.898 3.368 1.179 1.404 3.312 1.572 4.772 0.393 0.168-0.112 0.281-0.225 0.393-0.393z"></path>
<path d="M129.965 9.432c0.954 0.449 1.74 1.179 2.246 2.133v-2.077h3.705v13.811c0 1.853-0.337 3.312-0.954 4.267-1.067 1.628-3.144 2.47-6.232 2.47-1.572 0.056-3.144-0.337-4.547-1.123-1.179-0.674-1.909-1.909-1.965-3.256h4.098c0.056 0.393 0.225 0.73 0.505 0.954 0.618 0.393 1.347 0.561 2.077 0.505 1.347 0 2.302-0.449 2.751-1.404 0.393-0.954 0.505-1.965 0.449-2.975v-0.954c-0.281 0.561-0.674 1.011-1.179 1.404-0.842 0.618-1.909 0.898-2.919 0.842-1.74 0.056-3.368-0.674-4.491-1.965s-1.684-3.088-1.684-5.333c-0.056-1.965 0.505-3.874 1.628-5.446 1.067-1.46 2.751-2.302 4.547-2.189 0.674 0 1.347 0.112 1.965 0.337zM131.256 19.874c0.618-0.674 0.898-1.74 0.898-3.2 0.056-1.123-0.225-2.246-0.898-3.2-0.561-0.73-1.404-1.123-2.302-1.067-1.235-0.056-2.358 0.73-2.751 1.909-0.281 0.786-0.449 1.628-0.393 2.47 0 0.786 0.112 1.516 0.449 2.246 0.393 1.179 1.516 1.909 2.751 1.853 0.842-0.056 1.684-0.393 2.246-1.011z"></path>
<path d="M142.26 7.691h-3.874v-3.481h3.874v3.481zM138.386 9.432h3.874v14.54h-3.874v-14.54z"></path>
<path d="M154.105 14.653c-0.056-0.505-0.281-1.011-0.561-1.46-0.449-0.618-1.179-0.954-1.965-0.898-1.235-0.056-2.302 0.73-2.639 1.909-0.281 0.842-0.393 1.796-0.393 2.695-0.056 0.898 0.112 1.74 0.393 2.582 0.337 1.123 1.404 1.853 2.582 1.797 0.73 0.056 1.404-0.168 1.909-0.73 0.393-0.561 0.618-1.179 0.674-1.853h3.874c-0.112 1.179-0.561 2.302-1.235 3.256-1.179 1.684-2.975 2.47-5.333 2.47s-4.042-0.674-5.165-2.077c-1.179-1.572-1.74-3.481-1.684-5.389 0-2.47 0.618-4.435 1.853-5.839 1.291-1.403 3.144-2.189 5.053-2.077 1.572-0.056 3.144 0.337 4.491 1.235 1.179 0.842 1.853 2.246 2.077 4.323l-3.93 0.056z"></path>
</symbol>
<symbol id="icon-clock" viewBox="0 0 32 32">
<title>clock</title>
<path class="path1" d="M16 0c-8.837 0-16 7.163-16 16s7.163 16 16 16 16-7.163 16-16-7.163-16-16-16zM17.055 17.057l-11.747-0.020 0.004-2.11 9.633 0.016v-9.633h2.11v11.747z"></path>
</symbol>
<symbol id="icon-location" viewBox="0 0 24 24">
<title>Location</title>
<g class="path1" fill-rule="evenodd" transform="translate(6, 4)">
  <path class="path1" d="M5.78,0 C2.58779415,5.13345854e-16 6.03961325e-16,2.58779415 0,5.78 C0,9.164292 3.388712,14.549688 4.976512,16.603832 C5.16860043,16.8534107 5.46560864,16.9997498 5.78054904,16.9999894 C6.09548944,17.000229 6.39272,16.8543422 6.585188,16.605056 C8.17394,14.556284 11.56,9.184692 11.56,5.78 C11.56,4.24704869 10.9510375,2.77688307 9.8670772,1.6929228 C8.78311693,0.608962537 7.31295131,-2.46517372e-16 5.78,0 Z M5.78,7.48 C4.4655623,7.48 3.4,6.4144377 3.4,5.1 C3.4,3.7855623 4.4655623,2.72 5.78,2.72 C7.0944377,2.72 8.16,3.7855623 8.16,5.1 C8.16,6.4144377 7.0944377,7.48 5.78,7.48 Z"></path>
</g>
</symbol>
<symbol id="icon-phone" viewBox="0 0 32 32">
<title>phone</title>
<path class="path1" d="M31.985 25.248c0.068 0.52-0.090 0.971-0.474 1.355l-4.506 4.471c-0.203 0.226-0.469 0.418-0.796 0.576s-0.649 0.26-0.965 0.305c-0.023 0-0.090 0.006-0.203 0.017s-0.26 0.017-0.44 0.017c-0.429 0-1.124-0.073-2.084-0.22s-2.134-0.508-3.523-1.084c-1.389-0.576-2.964-1.44-4.726-2.592s-3.636-2.733-5.623-4.743c-1.581-1.558-2.891-3.049-3.93-4.472s-1.874-2.738-2.507-3.947c-0.632-1.208-1.107-2.304-1.423-3.286s-0.531-1.829-0.644-2.541-0.158-1.27-0.136-1.677c0.023-0.407 0.034-0.632 0.034-0.678 0.045-0.316 0.147-0.638 0.305-0.965s0.35-0.593 0.576-0.796l4.506-4.506c0.316-0.316 0.678-0.474 1.084-0.474 0.294 0 0.553 0.085 0.779 0.254s0.418 0.378 0.576 0.627l3.625 6.877c0.203 0.361 0.26 0.757 0.169 1.186s-0.282 0.79-0.576 1.084l-1.66 1.66c-0.045 0.045-0.085 0.119-0.119 0.22s-0.051 0.186-0.051 0.254c0.090 0.474 0.294 1.016 0.61 1.626 0.271 0.542 0.689 1.203 1.253 1.982s1.366 1.677 2.405 2.693c1.016 1.039 1.92 1.846 2.71 2.422s1.451 0.999 1.982 1.27 0.937 0.435 1.22 0.491l0.423 0.085c0.045 0 0.119-0.017 0.22-0.051s0.175-0.073 0.22-0.119l1.931-1.965c0.407-0.361 0.881-0.542 1.423-0.542 0.384 0 0.689 0.068 0.915 0.203h0.034l6.538 3.862c0.474 0.294 0.757 0.666 0.847 1.118z"></path>
</symbol>
<symbol id="icon-play" viewBox="0 0 32 32">
<title>play</title>
<path d="M1.135 32c-0.136 0-0.272-0.029-0.399-0.089-0.331-0.155-0.542-0.487-0.542-0.852v-30.118c0-0.365 0.211-0.698 0.542-0.852 0.329-0.154 0.721-0.104 1.001 0.129l18.071 15.059c0.215 0.179 0.339 0.444 0.339 0.723s-0.124 0.544-0.339 0.723l-18.071 15.059c-0.172 0.144-0.386 0.218-0.602 0.218zM2.076 2.95v26.099l15.659-13.050-15.659-13.050z"></path>
<path d="M12.794 32c-0.136 0-0.272-0.029-0.399-0.089-0.331-0.155-0.542-0.487-0.542-0.852v-4.663c0-0.52 0.422-0.941 0.941-0.941s0.941 0.422 0.941 0.941v2.654l15.659-13.050-15.659-13.050v2.654c0 0.52-0.422 0.941-0.941 0.941s-0.941-0.422-0.941-0.941v-4.663c0-0.365 0.211-0.698 0.542-0.852 0.329-0.154 0.721-0.104 1.001 0.129l18.071 15.059c0.215 0.179 0.339 0.444 0.339 0.723s-0.124 0.544-0.339 0.723l-18.071 15.059c-0.172 0.144-0.386 0.218-0.602 0.218z"></path>
</symbol>
<symbol id="icon-check_box_outline_blank" viewBox="0 0 32 32">
<title>check_box_outline_blank</title>
<path class="path1" d="M25.312 4c1.437 0 2.688 1.251 2.688 2.688v18.625c0 1.437-1.251 2.688-2.688 2.688h-18.625c-1.437 0-2.688-1.251-2.688-2.688v-18.625c0-1.437 1.251-2.688 2.688-2.688h18.625zM25.312 6.688h-18.625v18.625h18.625v-18.625z"></path>
</symbol>
<symbol id="icon-check_box" viewBox="0 0 32 32">
<title>check_box</title>
<path class="path1" d="M13.312 22.688l12-12-1.875-1.937-10.125 10.125-4.751-4.751-1.875 1.875zM25.312 4c1.5 0 2.688 1.251 2.688 2.688v18.625c0 1.437-1.188 2.688-2.688 2.688h-18.625c-1.5 0-2.688-1.251-2.688-2.688v-18.625c0-1.437 1.188-2.688 2.688-2.688h18.625z"></path>
</symbol>
<symbol id="icon-chevron-down" viewBox="0 0 32 32">
<title>chevron-down</title>
<path class="path1" d="M9.875 10.437l6.125 6.125 6.125-6.125 1.875 1.875-8 8-8-8z"></path>
</symbol>
<symbol id="icon-chevron-left" viewBox="0 0 32 32">
<title>chevron-left</title>
<path class="path1" d="M20.563 21.437l-1.875 1.875-8-8 8-8 1.875 1.875-6.125 6.125z"></path>
</symbol>
<symbol id="icon-chevron-right" viewBox="0 0 32 32">
<title>chevron-right</title>
<path class="path1" d="M11.437 21.812l6.125-6.125-6.125-6.125 1.875-1.875 8 8-8 8z"></path>
</symbol>
<symbol id="icon-chevron-up" viewBox="0 0 32 32">
<title>chevron-up</title>
<path class="path1" d="M9.875 20.563l-1.875-1.875 8-8 8 8-1.875 1.875-6.125-6.125z"></path>
</symbol>
<symbol id="icon-facebook" viewBox="0 0 19 32">
<title>Facebook</title>
<g transform="translate(0, 2)">
<path class="path1" d="M17.125 0.214v4.714h-2.804q-1.536 0-2.071 0.643t-0.536 1.929v3.375h5.232l-0.696 5.286h-4.536v13.554h-5.464v-13.554h-4.554v-5.286h4.554v-3.893q0-3.321 1.857-5.152t4.946-1.83q2.625 0 4.071 0.214z"></path>
</g>
</symbol>
<symbol id="icon-instagram" viewBox="0 0 27 32">
<title>instagram</title>
<path class="path1" d="M18.286 16q0-1.893-1.339-3.232t-3.232-1.339-3.232 1.339-1.339 3.232 1.339 3.232 3.232 1.339 3.232-1.339 1.339-3.232zM20.75 16q0 2.929-2.054 4.982t-4.982 2.054-4.982-2.054-2.054-4.982 2.054-4.982 4.982-2.054 4.982 2.054 2.054 4.982zM22.679 8.679q0 0.679-0.482 1.161t-1.161 0.482-1.161-0.482-0.482-1.161 0.482-1.161 1.161-0.482 1.161 0.482 0.482 1.161zM13.714 4.75q-0.125 0-1.366-0.009t-1.884 0-1.723 0.054-1.839 0.179-1.277 0.33q-0.893 0.357-1.571 1.036t-1.036 1.571q-0.196 0.518-0.33 1.277t-0.179 1.839-0.054 1.723 0 1.884 0.009 1.366-0.009 1.366 0 1.884 0.054 1.723 0.179 1.839 0.33 1.277q0.357 0.893 1.036 1.571t1.571 1.036q0.518 0.196 1.277 0.33t1.839 0.179 1.723 0.054 1.884 0 1.366-0.009 1.366 0.009 1.884 0 1.723-0.054 1.839-0.179 1.277-0.33q0.893-0.357 1.571-1.036t1.036-1.571q0.196-0.518 0.33-1.277t0.179-1.839 0.054-1.723 0-1.884-0.009-1.366 0.009-1.366 0-1.884-0.054-1.723-0.179-1.839-0.33-1.277q-0.357-0.893-1.036-1.571t-1.571-1.036q-0.518-0.196-1.277-0.33t-1.839-0.179-1.723-0.054-1.884 0-1.366 0.009zM27.429 16q0 4.089-0.089 5.661-0.179 3.714-2.214 5.75t-5.75 2.214q-1.571 0.089-5.661 0.089t-5.661-0.089q-3.714-0.179-5.75-2.214t-2.214-5.75q-0.089-1.571-0.089-5.661t0.089-5.661q0.179-3.714 2.214-5.75t5.75-2.214q1.571-0.089 5.661-0.089t5.661 0.089q3.714 0.179 5.75 2.214t2.214 5.75q0.089 1.571 0.089 5.661z"></path>
</symbol>
<symbol id="icon-google_plus" viewBox="0 0 36 28">
<title>google plus</title>
<path d="M22.453 14.266c0 6.547-4.391 11.188-11 11.188-6.328 0-11.453-5.125-11.453-11.453s5.125-11.453 11.453-11.453c3.094 0 5.672 1.125 7.672 3l-3.109 2.984c-0.844-0.812-2.328-1.766-4.562-1.766-3.906 0-7.094 3.234-7.094 7.234s3.187 7.234 7.094 7.234c4.531 0 6.234-3.266 6.5-4.937h-6.5v-3.938h10.813c0.109 0.578 0.187 1.156 0.187 1.906zM36 12.359v3.281h-3.266v3.266h-3.281v-3.266h-3.266v-3.281h3.266v-3.266h3.281v3.266h3.266z"></path>
</symbol>
<symbol id="icon-pinterest" viewBox="0 0 23 32">
<title>pinterest</title>
<path class="path1" d="M0 10.661q0-1.929 0.67-3.634t1.848-2.973 2.714-2.196 3.304-1.393 3.607-0.464q2.821 0 5.25 1.188t3.946 3.455 1.518 5.125q0 1.714-0.339 3.357t-1.071 3.161-1.786 2.67-2.589 1.839-3.375 0.688q-1.214 0-2.411-0.571t-1.714-1.571q-0.179 0.696-0.5 2.009t-0.42 1.696-0.366 1.268-0.464 1.268-0.571 1.116-0.821 1.384-1.107 1.545l-0.25 0.089-0.161-0.179q-0.268-2.804-0.268-3.357 0-1.643 0.384-3.688t1.188-5.134 0.929-3.625q-0.571-1.161-0.571-3.018 0-1.482 0.929-2.786t2.357-1.304q1.089 0 1.696 0.723t0.607 1.83q0 1.179-0.786 3.411t-0.786 3.339q0 1.125 0.804 1.866t1.946 0.741q0.982 0 1.821-0.446t1.402-1.214 1-1.696 0.679-1.973 0.357-1.982 0.116-1.777q0-3.089-1.955-4.813t-5.098-1.723q-3.571 0-5.964 2.313t-2.393 5.866q0 0.786 0.223 1.518t0.482 1.161 0.482 0.813 0.223 0.545q0 0.5-0.268 1.304t-0.661 0.804q-0.036 0-0.304-0.054-0.911-0.268-1.616-1t-1.089-1.688-0.58-1.929-0.196-1.902z"></path>
</symbol>
<symbol id="icon-radio_button_checked" viewBox="0 0 32 32">
<title>radio_button_checked</title>
<path class="path1" d="M16 26.688c5.875 0 10.688-4.812 10.688-10.688s-4.812-10.688-10.688-10.688-10.688 4.812-10.688 10.688 4.812 10.688 10.688 10.688zM16 2.688c7.375 0 13.312 5.937 13.312 13.312s-5.937 13.312-13.312 13.312-13.312-5.937-13.312-13.312 5.937-13.312 13.312-13.312zM16 9.312c3.688 0 6.688 3 6.688 6.688s-3 6.688-6.688 6.688-6.688-3-6.688-6.688 3-6.688 6.688-6.688z"></path>
</symbol>
<symbol id="icon-radio_button_unchecked" viewBox="0 0 32 32">
<title>radio_button_unchecked</title>
<path class="path1" d="M16 26.688c5.875 0 10.688-4.812 10.688-10.688s-4.812-10.688-10.688-10.688-10.688 4.812-10.688 10.688 4.812 10.688 10.688 10.688zM16 2.688c7.375 0 13.312 5.937 13.312 13.312s-5.937 13.312-13.312 13.312-13.312-5.937-13.312-13.312 5.937-13.312 13.312-13.312z"></path>
</symbol>
<symbol id="icon-twitter" viewBox="0 0 30 32">
<title>Twitter</title>
<path class="path1" d="M28.929 7.286q-1.196 1.75-2.893 2.982 0.018 0.25 0.018 0.75 0 2.321-0.679 4.634t-2.063 4.437-3.295 3.759-4.607 2.607-5.768 0.973q-4.839 0-8.857-2.589 0.625 0.071 1.393 0.071 4.018 0 7.161-2.464-1.875-0.036-3.357-1.152t-2.036-2.848q0.589 0.089 1.089 0.089 0.768 0 1.518-0.196-2-0.411-3.313-1.991t-1.313-3.67v-0.071q1.214 0.679 2.607 0.732-1.179-0.786-1.875-2.054t-0.696-2.75q0-1.571 0.786-2.911 2.161 2.661 5.259 4.259t6.634 1.777q-0.143-0.679-0.143-1.321 0-2.393 1.688-4.080t4.080-1.688q2.5 0 4.214 1.821 1.946-0.375 3.661-1.393-0.661 2.054-2.536 3.179 1.661-0.179 3.321-0.893z"></path>
</symbol>
<symbol id="icon-linkedin" viewBox="0 0 48 48">
<title>LinkedIn</title>
<g class="path1" transform="translate(8, 6)" fill-rule="evenodd">
<path d="M12 12h5.535v2.837h0.079c0.77-1.381 2.655-2.837 5.464-2.837 5.842 0 6.922 3.637 6.922 8.367v9.633h-5.769v-8.54c0-2.037-0.042-4.657-3.001-4.657-3.005 0-3.463 2.218-3.463 4.509v8.688h-5.767v-18z"></path>
<path d="M2 12h6v18h-6v-18z"></path>
<path d="M8 7c0 1.657-1.343 3-3 3s-3-1.343-3-3c0-1.657 1.343-3 3-3s3 1.343 3 3z"></path>
</g>
</symbol>
<symbol id="icon-youtube" viewBox="0 0 27 32">
<title>youtube</title>
<path class="path1" d="M17.339 22.214v3.768q0 1.196-0.696 1.196-0.411 0-0.804-0.393v-5.375q0.393-0.393 0.804-0.393 0.696 0 0.696 1.196zM23.375 22.232v0.821h-1.607v-0.821q0-1.214 0.804-1.214t0.804 1.214zM6.125 18.339h1.911v-1.679h-5.571v1.679h1.875v10.161h1.786v-10.161zM11.268 28.5h1.589v-8.821h-1.589v6.75q-0.536 0.75-1.018 0.75-0.321 0-0.375-0.375-0.018-0.054-0.018-0.625v-6.5h-1.589v6.982q0 0.875 0.143 1.304 0.214 0.661 1.036 0.661 0.857 0 1.821-1.089v0.964zM18.929 25.857v-3.518q0-1.304-0.161-1.768-0.304-1-1.268-1-0.893 0-1.661 0.964v-3.875h-1.589v11.839h1.589v-0.857q0.804 0.982 1.661 0.982 0.964 0 1.268-0.982 0.161-0.482 0.161-1.786zM24.964 25.679v-0.232h-1.625q0 0.911-0.036 1.089-0.125 0.643-0.714 0.643-0.821 0-0.821-1.232v-1.554h3.196v-1.839q0-1.411-0.482-2.071-0.696-0.911-1.893-0.911-1.214 0-1.911 0.911-0.5 0.661-0.5 2.071v3.089q0 1.411 0.518 2.071 0.696 0.911 1.929 0.911 1.286 0 1.929-0.946 0.321-0.482 0.375-0.964 0.036-0.161 0.036-1.036zM14.107 9.375v-3.75q0-1.232-0.768-1.232t-0.768 1.232v3.75q0 1.25 0.768 1.25t0.768-1.25zM26.946 22.786q0 4.179-0.464 6.25-0.25 1.054-1.036 1.768t-1.821 0.821q-3.286 0.375-9.911 0.375t-9.911-0.375q-1.036-0.107-1.83-0.821t-1.027-1.768q-0.464-2-0.464-6.25 0-4.179 0.464-6.25 0.25-1.054 1.036-1.768t1.839-0.839q3.268-0.357 9.893-0.357t9.911 0.357q1.036 0.125 1.83 0.839t1.027 1.768q0.464 2 0.464 6.25zM9.125 0h1.821l-2.161 7.125v4.839h-1.786v-4.839q-0.25-1.321-1.089-3.786-0.661-1.839-1.161-3.339h1.893l1.268 4.696zM15.732 5.946v3.125q0 1.446-0.5 2.107-0.661 0.911-1.893 0.911-1.196 0-1.875-0.911-0.5-0.679-0.5-2.107v-3.125q0-1.429 0.5-2.089 0.679-0.911 1.875-0.911 1.232 0 1.893 0.911 0.5 0.661 0.5 2.089zM21.714 3.054v8.911h-1.625v-0.982q-0.946 1.107-1.839 1.107-0.821 0-1.054-0.661-0.143-0.429-0.143-1.339v-7.036h1.625v6.554q0 0.589 0.018 0.625 0.054 0.393 0.375 0.393 0.482 0 1.018-0.768v-6.804h1.625z"></path>
</symbol>
<symbol id="icon-arrow-up" viewBox="0 0 24 24">
<title>arrow-up</title>
<path class="path1" d="M6.984 14.016l5.016-5.016 5.016 5.016h-10.031z"></path>
</symbol>
<symbol id="icon-send" viewBox="0 0 24 24">
<title>send</title>
<path d="M2.016 21v-6.984l15-2.016-15-2.016v-6.984l21 9z"></path>
</symbol>
<symbol id="icon-certified" viewBox="0 0 24 24">
<title>Certified</title>
<g class="path1" transform="translate(2, 2)" fill-rule="nonzero">
<path d="M7.5761434,16.3828 L4.0768634,19.882 C3.96643885,19.9924494 3.80182903,20.0285273 3.65533128,19.9743879 C3.50883353,19.9202485 3.40724484,19.7857951 3.3951834,19.63008 L3.2051834,17.16176 C3.18999394,16.9651541 3.0337893,16.8089495 2.8371834,16.79376 L0.369343397,16.60392 C0.213585687,16.5919428 0.0790528854,16.4903859 0.0248556594,16.3438711 C-0.0293415666,16.1973564 0.00671518627,16.0326967 0.117183397,15.92224 L3.1130234,12.92656 C4.15828806,14.5582629 5.73478919,15.7791053 7.5761434,16.3828 Z M19.8817434,15.92224 L17.1081434,13.1488 C16.0049633,14.754405 14.3785436,15.9271815 12.5067034,16.4668 L15.9220634,19.882 C16.0324879,19.9924494 16.1970978,20.0285273 16.3435955,19.9743879 C16.4900933,19.9202485 16.591682,19.7857951 16.6037434,19.63008 L16.7937434,17.16176 C16.8089329,16.9651541 16.9651375,16.8089495 17.1617434,16.79376 L19.6295034,16.60392 C19.7852611,16.5919428 19.9197939,16.4903859 19.9739911,16.3438711 C20.0281884,16.1973564 19.9921316,16.0326967 19.8816634,15.92224 L19.8817434,15.92224 Z M9.9994234,4.8 C8.0111983,4.8 6.3994234,6.4117749 6.3994234,8.4 C6.3994234,10.3882251 8.0111983,12 9.9994234,12 C11.9876485,12 13.5994234,10.3882251 13.5994234,8.4 C13.5972189,6.41268873 11.9867347,4.80220445 9.9994234,4.8 Z M9.9994234,16 C5.8020593,16 2.3994234,12.5973641 2.3994234,8.4 C2.3994234,4.2026359 5.8020593,0.8 9.9994234,0.8 C14.1967875,0.8 17.5994234,4.2026359 17.5994234,8.4 C17.594662,12.5953903 14.1948137,15.9952386 9.9994234,16 Z M14.3994234,8.4 C14.3994234,5.9699471 12.4294763,4 9.9994234,4 C7.5693705,4 5.5994234,5.9699471 5.5994234,8.4 C5.5994234,10.8300529 7.5693705,12.8 9.9994234,12.8 C11.166376,12.8 12.2855332,12.3364299 13.1106932,11.5112698 C13.9358533,10.6861098 14.3994234,9.56695256 14.3994234,8.4 Z"></path>
</g>
</symbol>
<symbol id="icon-service_date" viewBox="0 0 24 24">
<title>Service Date</title>
<g class="path1" transform="translate(2, 2)" fill-rule="nonzero">
<path d="M20.0035306,3.59891233 L20.0035306,6.79756826 C20.0035306,7.01838937 19.8245197,7.19740025 19.6036986,7.19740025 L16.4050427,7.19740025 C16.1842216,7.19740025 16.0052107,7.01838937 16.0052107,6.79756826 C16.0052107,6.57674715 16.1842216,6.39773627 16.4050427,6.39773627 L18.4613786,6.39773627 C16.8548445,2.63483806 12.9535556,0.38779262 8.89254334,0.886325026 C4.83153112,1.38485743 1.58958933,4.50881035 0.940913105,8.5485596 C0.292236883,12.5883088 2.39317154,16.5701855 6.09395305,18.3150555 C9.79473456,20.0599254 14.2033928,19.1472363 16.9072316,16.0764693 C17.0534373,15.9108535 17.3062186,15.8951184 17.4718344,16.0413241 C17.6374502,16.1875297 17.6531853,16.440311 17.5069796,16.6059268 C14.5637416,19.9505462 9.76282144,20.9445602 5.73350108,19.0435851 C1.70418072,17.14261 -0.581475139,12.8052519 0.128300523,8.4069173 C0.838076185,4.00858268 4.37205154,0.610360174 8.79480233,0.0733273389 C13.2175531,-0.463705497 17.4621004,1.99000934 19.2038666,6.0906653 L19.2038666,3.59891233 C19.2038666,3.37809122 19.3828775,3.19908034 19.6036986,3.19908034 C19.8245197,3.19908034 20.0035306,3.37809122 20.0035306,3.59891233 Z M10.0077308,3.99874432 C13.3200475,3.99874432 16.0052107,6.68390752 16.0052107,9.99622419 C16.0052107,13.3085409 13.3200475,15.9937041 10.0077308,15.9937041 C6.69541413,15.9937041 4.01025093,13.3085409 4.01025093,9.99622419 C4.01025093,6.68390752 6.69541413,3.99874432 10.0077308,3.99874432 Z M10.0077308,6.39773627 C9.78690969,6.39773627 9.60789881,6.57674715 9.60789881,6.79756826 L9.60789881,9.99622419 L9.60789881,9.99718379 C9.60833642,10.1007612 9.64916086,10.2000825 9.721691,10.2740275 L9.72480969,10.2785056 L11.3241377,11.8778335 C11.4810233,12.0293588 11.7304009,12.0271917 11.8846296,11.872963 C12.0388583,11.7187343 12.0410253,11.4693567 11.8895001,11.3124711 L10.4075628,9.83053382 L10.4075628,6.79756826 C10.4075628,6.57674715 10.2285519,6.39773627 10.0077308,6.39773627 Z"></path>
</g>
</symbol>
<symbol id="icon-odometer" viewBox="0 0 24 24">
<title>Odometer</title>
<g class="path1" transform="translate(2, 2)" fill-rule="nonzero">
<path d="M10.3958746,12.2369325 C10.3958746,12.4549325 10.2167115,12.6316564 9.99570274,12.6316564 C9.77469392,12.6316564 9.59553088,12.4549325 9.59553088,12.2369325 C9.59553088,12.0189324 9.77469392,11.8422085 9.99570274,11.8422085 C10.2167115,11.8422085 10.3958746,12.0189324 10.3958746,12.2369325 Z M19.9999991,9.86858884 C19.9996582,11.6802491 19.4905127,13.4564017 18.5290474,15 L1.46235809,15 C-0.742005605,11.43448 -0.431089987,6.88607255 2.23857152,3.6447166 C4.90823302,0.403360656 9.3579899,-0.828378167 13.3475697,0.569630782 C17.3371494,1.96763973 20.0018086,5.69237729 19.9999991,9.86858884 Z M14.2400855,8.05033251 C14.0838184,7.89623942 13.8305095,7.89623942 13.6742425,8.05033251 L10.5104038,11.1711778 C9.97803169,10.9182378 9.33832876,11.0809627 8.99636509,11.5563126 C8.65440142,12.0316624 8.70991433,12.6809963 9.12775217,13.0931457 C9.54559,13.5052951 10.2038859,13.5600523 10.6857965,13.2227441 C11.167707,12.8854359 11.3326778,12.2544419 11.0762468,11.7293175 L14.2400855,8.6085511 C14.3963587,8.45440243 14.3963587,8.20448118 14.2400855,8.05033251 Z M18.3993117,9.86858884 C18.3993116,5.29058869 14.6368877,1.57938633 9.99570274,1.57938633 C5.35451773,1.57938633 1.59209388,5.29058869 1.59209381,9.86858884 C1.59209381,10.0865889 1.77125685,10.2633128 1.99226566,10.2633128 C2.21327447,10.2633128 2.39243752,10.0865889 2.39243752,9.86858884 C2.39243752,5.72658866 5.79653531,2.36883408 9.99570274,2.36883408 C14.1948702,2.36883408 17.598968,5.72658866 17.598968,9.86858884 C17.598968,10.0865889 17.778131,10.2633128 17.9991398,10.2633128 C18.2201486,10.2633128 18.3993117,10.0865889 18.3993117,9.86858884 Z"></path>
</g>
</symbol>
<symbol id="icon-inspection" viewBox="0 0 24 24">
<title>Inspection</title>
<g class="path1" transform="translate(4, 2)" fill-rule="nonzero">
<path d="M3.6,3.6 L3.6,2 C3.6,1.7790861 3.7790861,1.6 4,1.6 L4.4,1.6 L4.4,1.2 C4.4,0.5372583 4.9372583,1.21743675e-16 5.6,0 L10.4,0 C11.0627417,4.05812251e-17 11.6,0.5372583 11.6,1.2 L11.6,1.6 L12,1.6 C12.2209139,1.6 12.4,1.7790861 12.4,2 L12.4,3.6 C12.4,3.8209139 12.2209139,4 12,4 L4,4 C3.7790861,4 3.6,3.8209139 3.6,3.6 Z M15.6,3.6 L15.6,18.8 C15.6,19.4627417 15.0627417,20 14.4,20 L1.6,20 C0.9372583,20 0.4,19.4627417 0.4,18.8 L0.4,3.6 C0.4,2.9372583 0.9372583,2.4 1.6,2.4 L2.87384,2.4 C2.82632706,2.52807288 2.80134485,2.66340449 2.8,2.8 L2.8,3.6 C2.80070548,4.26244926 3.33755074,4.79929452 4,4.8 L12,4.8 C12.6624493,4.79929452 13.1992945,4.26244926 13.2,3.6 L13.2,2.8 C13.1986552,2.66340449 13.1736729,2.52807288 13.12616,2.4 L14.4,2.4 C15.0627417,2.4 15.6,2.9372583 15.6,3.6 Z M11.6,15.6 C11.5978184,14.1042536 10.668976,12.7664094 9.26832,12.2416 C9.74671466,11.7490096 10.0098975,11.0865922 10,10.4 C10.1000914,9.1882266 9.20995753,8.12006594 8,8 C6.79004247,8.12006594 5.89990858,9.1882266 6,10.4 C5.99010249,11.0865922 6.25328534,11.7490096 6.73168,12.2416 C5.33102402,12.7664094 4.40218156,14.1042536 4.4,15.6 C4.4,15.8209139 4.5790861,16 4.8,16 L11.2,16 C11.4209139,16 11.6,15.8209139 11.6,15.6 Z M8,12 C8.6504,12 9.2,11.26736 9.2,10.4 C9.2,9.53264 8.6504,8.8 8,8.8 C7.3496,8.8 6.8,9.53264 6.8,10.4 C6.8,11.26736 7.3496,12 8,12 Z M8,12.8 C6.60870997,12.8017023 5.42903793,13.8232403 5.22848,15.2 L10.77144,15.2 C10.5708865,13.8232703 9.39125966,12.801742 8,12.8 Z"></path>
</g>
</symbol>
<symbol id="icon-new_bus" viewBox="0 0 81 81">
<title>New Buses</title>
<g class="path1" transform="translate(-6, -6)" fill-rule="evenodd">
<path d="M76.9918304,42.284347 C77.0179464,42.0474314 76.9749554,41.799895 76.8513393,41.5785567 L72.7436161,34.2194474 C71.3348214,31.7340292 70.0053125,30.282656 67.3446875,30.0372437 C67.2575,30.0130282 67.1657589,30 67.0712054,30 L20.2142857,30 C18.4420089,30 17,31.5245862 17,33.3986689 L17,52.3825002 C17,55.4517814 19.4333482,56.9231218 21.2932143,57.4484993 C21.4180357,61.0832341 24.2516964,64 27.7192411,64 C30.8999107,64 33.5470089,61.5446034 34.0588839,58.3322949 L59.9992411,58.3322949 C60.51125,61.5446034 63.1588839,64 66.3402232,64 C69.5208929,64 72.1679911,61.5446034 72.6798661,58.3322949 L75.9285714,58.3322949 C76.5202679,58.3322949 77,57.8250435 77,57.1994052 L77,42.418736 C77,42.3731372 76.9967857,42.3285297 76.9918304,42.284347 Z M72.7709375,45.9195065 C72.7709375,45.2948595 73.2516071,44.7866169 73.8423661,44.7866169 L74.8571429,44.7866169 L74.8571429,47.0169933 L72.7709375,47.0169933 L72.7709375,45.9195065 Z M74.2299554,41.3402251 L65.103125,41.3402251 L62.4383482,35.6999925 L71.0818304,35.6999925 L74.2299554,41.3402251 Z M19.1428571,43.6060043 L20.2923661,43.6060043 L20.2923661,47.0168517 L19.1428571,47.0168517 L19.1428571,43.6060043 Z M19.1428571,41.3402251 L19.1428571,35.6805918 L54.4162946,35.6805918 C55.5988839,35.6805918 56.3072321,36.1221355 56.7826786,37.1517905 L58.6933036,41.3402251 L19.1428571,41.3402251 Z M27.7192411,61.7343624 C25.3541964,61.7343624 23.4301786,59.6998342 23.4301786,57.199122 C23.4301786,54.6988346 25.3541964,52.6645897 27.7192411,52.6645897 C30.0834821,52.6645897 32.0070982,54.6988346 32.0070982,57.199122 C32.0070982,59.6998342 30.0834821,61.7343624 27.7192411,61.7343624 Z M66.3402232,61.7343624 C63.9751786,61.7343624 62.0511607,59.6998342 62.0511607,57.199122 C62.0511607,54.6988346 63.9751786,52.6645897 66.3402232,52.6645897 C68.7044643,52.6645897 70.6280804,54.6988346 70.6280804,57.199122 C70.6280804,59.6998342 68.7045982,61.7343624 66.3402232,61.7343624 Z M72.68,56.0666572 C72.1685268,52.8543487 69.5211607,50.3988105 66.3402232,50.3988105 C63.1586161,50.3988105 60.5108482,52.8543487 59.9991071,56.0666572 L34.0590179,56.0666572 C33.5474107,52.8543487 30.9001786,50.3988105 27.7192411,50.3988105 C24.8395089,50.3988105 22.3958482,52.4101144 21.5786161,55.1737986 C20.5769643,54.8445526 19.1428571,54.0777279 19.1428571,52.3826418 L19.1428571,49.2827726 L20.2923661,49.2827726 C21.4738839,49.2827726 22.4352232,48.266429 22.4352232,47.0169933 L22.4352232,43.6061459 L60.3747768,43.6061459 C60.9664732,43.6061459 61.4462054,43.0988946 61.4462054,42.4732563 L61.4462054,42.4188776 C61.4462054,42.2485193 61.4099107,42.0801436 61.3398661,41.9266371 L58.7104464,36.1626363 C57.8685714,34.3393921 56.4238839,33.4148125 54.4162946,33.4148125 L19.1428571,33.4148125 L19.1428571,33.3988105 C19.1428571,32.7741635 19.6235268,32.2659208 20.2142857,32.2659208 L66.4965179,32.2659208 C67.9262054,32.2659208 68.7947321,32.5988488 69.5735268,33.4342133 L60.7053125,33.4342133 C60.3340625,33.4342133 59.9891964,33.6374253 59.7939286,33.9713446 C59.5986607,34.3051222 59.5808482,34.7221672 59.7467857,35.0733629 L63.3777232,42.7587445 C63.4975893,43.2461702 63.9163839,43.6060043 64.4148661,43.6060043 L71.4905804,43.6060043 C70.9559375,44.2132332 70.6279464,45.0263647 70.6279464,45.9195065 L70.6279464,48.149883 C70.6279464,48.7755213 71.1076786,49.2827726 71.699375,49.2827726 L74.8571429,49.2827726 L74.8571429,56.0666572 L72.68,56.0666572 Z"></path>
<path d="M66.081222,47 L27.0968602,47 C26.5138144,47 26.0410959,47.5708812 26.0410959,48.275 C26.0410959,48.9791187 26.5138144,49.55 27.0968602,49.55 L66.081222,49.55 C66.6642678,49.55 67.1369863,48.9791187 67.1369863,48.275 C67.1369863,47.5708812 66.6642678,47 66.081222,47 Z"></path>
<path d="M29.862325,56.0515967 C29.2491741,56.0515967 28.7520472,56.5656979 28.7520472,57.1997847 C28.7520472,57.8084679 28.2735175,58.303624 27.6852091,58.303624 C27.0966231,58.303624 26.6178158,57.8084679 26.6178158,57.1997847 C26.6178158,56.5913886 27.0966231,56.096376 27.6852091,56.096376 C28.29836,56.096376 28.7954868,55.5822748 28.7954868,54.948188 C28.7954868,54.3141012 28.29836,53.8 27.6852091,53.8 C25.8722643,53.8 24.3972603,55.3250807 24.3972603,57.1997847 C24.3972603,59.0746322 25.8722643,60.6 27.6852091,60.6 C29.4978763,60.6 30.9726027,59.0746322 30.9726027,57.1997847 C30.9726027,56.5656979 30.4754759,56.0515967 29.862325,56.0515967 Z"></path>
<path d="M68.492462,56.0515967 C67.8793111,56.0515967 67.3821842,56.5656979 67.3821842,57.1997847 C67.3821842,57.8084679 66.9036545,58.303624 66.3153461,58.303624 C65.7267601,58.303624 65.2479528,57.8084679 65.2479528,57.1997847 C65.2479528,56.5913886 65.7267601,56.096376 66.3153461,56.096376 C66.928497,56.096376 67.4256238,55.5822748 67.4256238,54.948188 C67.4256238,54.3141012 66.928497,53.8 66.3153461,53.8 C64.5024013,53.8 63.0273973,55.3250807 63.0273973,57.1997847 C63.0273973,59.0746322 64.5024013,60.6 66.3153461,60.6 C68.1280133,60.6 69.6027397,59.0746322 69.6027397,57.1997847 C69.6027397,56.5656979 69.1056129,56.0515967 68.492462,56.0515967 Z"></path>
</g>
</symbol>
<symbol id="icon-used_bus" viewBox="0 0 81 81">
<title>Used Buses</title>
<g class="path1" transform="translate(-6, -6)" fill-rule="evenodd">
  <path d="M72.6568581,53.9870263 L72.6568581,33.8004994 C72.6568581,31.7049071 71.0051152,30 68.9746348,30 L25.1561462,30 C23.1257712,30 21.4740284,31.7047983 21.4740284,33.8004994 L21.4740284,53.9680853 C20.648737,54.0462441 20,54.7638247 20,55.6356547 L20,57.9686626 C20,58.892417 20.7281548,59.6437431 21.6231609,59.6437431 L26.231398,59.6437431 C27.126404,59.6437431 27.8543479,58.8921993 27.8543479,57.9686626 L27.8543479,57.6719204 L28.8619944,57.6719204 C29.2732163,60.6788575 31.7815746,63 34.8066234,63 C37.8316722,63 40.3400306,60.6790752 40.7512524,57.6719204 L52.2959447,57.6719204 C52.7071666,60.6788575 55.215525,63 58.2405737,63 C61.2656225,63 63.7739809,60.6790752 64.1852028,57.6719204 L65.4597901,57.6719204 L65.4597901,57.9686626 C65.4597901,58.892417 66.1879449,59.6437431 67.082951,59.6437431 L72.3768391,59.6437431 C73.2718452,59.6437431 74,58.8921993 74,57.9686626 L74,55.6356547 C73.9998945,54.8106329 73.4185519,54.1246207 72.6568581,53.9870263 Z M70.9711544,39.4495962 L70.9711544,46.7238085 L68.818225,46.7238085 C68.660444,46.7238085 68.5319833,46.5912216 68.5319833,46.4283726 L68.5319833,39.4495962 L70.9711544,39.4495962 Z M70.9710489,37.7097463 L68.5320888,37.7097463 L68.5320888,34.9659148 C68.5320888,34.8030658 68.6605495,34.6704788 68.8183304,34.6704788 L70.9710489,34.6704788 L70.9710489,37.7097463 Z M23.1597321,33.8004994 C23.1597321,32.6642575 24.0552655,31.73985 25.1561462,31.73985 L68.9745293,31.73985 C69.7739809,31.73985 70.4632178,32.2285058 70.7818383,32.9306289 L68.818225,32.9306289 C67.7308443,32.9306289 66.8462796,33.8436065 66.8462796,34.9659148 L66.8462796,35.320242 L23.1597321,35.320242 L23.1597321,33.8004994 Z M62.5596161,37.0599831 L62.5596161,40.9482207 C62.5596161,41.0111396 62.5100459,41.0620844 62.449296,41.0620844 L54.440753,41.0620844 C54.3800032,41.0620844 54.3305384,41.0110308 54.3305384,40.9482207 L54.3305384,37.0599831 L62.5596161,37.0599831 Z M49.3217318,37.0599831 L49.3217318,40.9482207 C49.3217318,41.0111396 49.272267,41.0620844 49.2114117,41.0620844 L41.2029742,41.0620844 C41.1420134,41.0620844 41.0926541,41.0110308 41.0926541,40.9482207 L41.0926541,37.0599831 L49.3217318,37.0599831 Z M36.083742,37.0599831 L36.083742,40.9482207 C36.083742,41.0111396 36.0342773,41.0620844 35.9734219,41.0620844 L27.964879,41.0620844 C27.9039182,41.0620844 27.8545589,41.0110308 27.8545589,40.9482207 L27.8545589,37.0599831 L36.083742,37.0599831 Z M23.1597321,45.7738197 L62.0994568,45.7738197 C62.3532142,45.7738197 62.5596161,45.9868515 62.5596161,46.2488686 C62.5596161,46.5107768 62.3532142,46.7238085 62.0994568,46.7238085 L23.1597321,46.7238085 L23.1597321,45.7738197 Z M23.1597321,51.8245962 L25.5986922,51.8245962 L25.5986922,53.9603565 L23.1597321,53.9603565 L23.1597321,51.8245962 Z M26.1688551,57.904002 L21.6857037,57.904002 L21.6857037,55.7002065 L26.1688551,55.7002065 L26.1688551,57.904002 Z M34.8066234,61.26015 C32.4250382,61.26015 30.4873701,59.2603512 30.4873701,56.8020498 C30.4873701,54.3439661 32.4249328,52.3440584 34.8066234,52.3440584 C37.1883141,52.3440584 39.1258767,54.3438572 39.1258767,56.8020498 C39.1258767,59.2603512 37.1882086,61.26015 34.8066234,61.26015 Z M58.2403628,61.26015 C55.8587776,61.26015 53.9211095,59.2603512 53.9211095,56.8020498 C53.9211095,54.3439661 55.8586722,52.3440584 58.2403628,52.3440584 C60.621948,52.3440584 62.5596161,54.3438572 62.5596161,56.8020498 C62.5596161,59.2603512 60.6220535,61.26015 58.2403628,61.26015 Z M66.8462796,51.5156621 L66.8462796,53.9801684 C66.0631757,54.0989306 65.4594737,54.7949576 65.4594737,55.6355459 L65.4594737,55.9321792 L64.1848864,55.9321792 C63.7736645,52.9252421 61.2653061,50.6043173 58.2402573,50.6043173 C55.2152086,50.6043173 52.7068502,52.9251333 52.2956283,55.9321792 L40.7512524,55.9321792 C40.3400306,52.9252421 37.8316722,50.6043173 34.8066234,50.6043173 C31.7815746,50.6043173 29.2732163,52.9251333 28.8619944,55.9321792 L27.8543479,55.9321792 L27.8543479,55.6355459 C27.8543479,55.1243568 27.6307546,54.6666161 27.2798608,54.3590971 C27.2816537,54.3292705 27.2842905,54.2995527 27.2842905,54.2692907 L27.2842905,51.5156621 C27.2842905,50.7265629 26.6623425,50.0846374 25.8980119,50.0846374 L23.1597321,50.0846374 L23.1597321,48.4635496 L62.0994568,48.4635496 C63.2827084,48.4635496 64.2453198,47.4701272 64.2453198,46.2487597 C64.2453198,45.0273922 63.2827084,44.033752 62.0994568,44.033752 L23.1597321,44.033752 L23.1597321,37.0597654 L26.1687497,37.0597654 L26.1687497,40.948003 C26.1687497,41.9702723 26.9745293,42.8017166 27.9647735,42.8017166 L35.973211,42.8017166 C36.9636661,42.8017166 37.7692348,41.9700546 37.7692348,40.948003 L37.7692348,37.0597654 L39.4065285,37.0597654 L39.4065285,40.948003 C39.4065285,41.9702723 40.2123082,42.8017166 41.2025523,42.8017166 L49.2109898,42.8017166 C50.2014449,42.8017166 51.0070137,41.9700546 51.0070137,40.948003 L51.0070137,37.0597654 L52.6443073,37.0597654 L52.6443073,40.948003 C52.6443073,41.9702723 53.4499815,42.8017166 54.4402257,42.8017166 L62.4486632,42.8017166 C63.4391183,42.8017166 64.244687,41.9700546 64.244687,40.948003 L64.244687,37.0597654 L66.8456468,37.0597654 L66.8456468,46.4282637 C66.8456468,47.550572 67.7302115,48.4635496 68.8175922,48.4635496 L70.9703106,48.4635496 L70.9703106,50.0846374 L68.2319253,50.0846374 C67.4683331,50.0846374 66.8462796,50.7265629 66.8462796,51.5156621 Z M70.9711544,51.8245962 L70.9711544,53.9603565 L68.5321943,53.9603565 L68.5321943,51.8245962 L70.9711544,51.8245962 Z M72.3141908,57.904002 L67.1453884,57.904002 L67.1453884,55.7002065 L72.3141908,55.7002065 L72.3141908,57.904002 Z"></path>
<path d="M34.8635873,54 C33.2845504,54 32,55.3284666 32,56.9614877 C32,58.5945088 33.2845504,59.9230769 34.8635873,59.9230769 C36.4426242,59.9230769 37.7272727,58.5945088 37.7272727,56.9614877 C37.7272727,55.3285681 36.4426242,54 34.8635873,54 Z M34.8635873,58.3005122 C34.1497519,58.3005122 33.5689262,57.6998293 33.5689262,56.9614877 C33.5689262,56.2232477 34.1497519,55.6225647 34.8635873,55.6225647 C35.5775209,55.6225647 36.1583465,56.2232477 36.1583465,56.9614877 C36.1583465,57.6998293 35.5775209,58.3005122 34.8635873,58.3005122 Z"></path>
<path d="M58.0454545,53.6923077 C56.4663906,53.6923077 55.1818182,55.0207743 55.1818182,56.6537954 C55.1818182,58.2868165 56.4663906,59.6153846 58.0454545,59.6153846 C59.6245185,59.6153846 60.9090909,58.2868165 60.9090909,56.6537954 C60.9091891,55.0208758 59.6246167,53.6923077 58.0454545,53.6923077 Z M58.0454545,57.9928199 C57.3316069,57.9928199 56.7507713,57.392137 56.7507713,56.6537954 C56.7507713,55.9155554 57.3316069,55.3148724 58.0454545,55.3148724 C58.7593022,55.3148724 59.3401378,55.9155554 59.3401378,56.6537954 C59.340236,57.392137 58.7594985,57.9928199 58.0454545,57.9928199 Z"></path>
<path d="M48.6284171,50.8461538 L43.7352193,50.8461538 C43.2788433,50.8461538 42.9090909,51.2248691 42.9090909,51.6923077 C42.9090909,52.1597463 43.2788433,52.5384615 43.7352193,52.5384615 L48.6284171,52.5384615 C49.0846897,52.5384615 49.4545455,52.1597463 49.4545455,51.6923077 C49.4544421,51.224975 49.0846897,50.8461538 48.6284171,50.8461538 Z"></path>
<path d="M51.0783962,47.4615385 L42.103422,47.4615385 C41.6446274,47.4615385 41.2727273,47.8402537 41.2727273,48.3076923 C41.2727273,48.7751309 41.6445234,49.1538462 42.103422,49.1538462 L51.0783962,49.1538462 C51.5372948,49.1538462 51.9090909,48.7751309 51.9090909,48.3076923 C51.9090909,47.8402537 51.5371908,47.4615385 51.0783962,47.4615385 Z"></path>
</g>
</symbol>
<symbol id="icon-service" viewBox="0 0 81 81">
  <title>Service</title>
  <g class="path1" fill-rule="evenodd" transform="translate(22, 22)">
    <path d="M36.3641624,32.9623391 L28.2478721,24.6267752 L28.7620416,23.218626 C28.857938,22.9558922 28.7955006,22.6598342 28.6023347,22.4613737 L27.3913806,21.2176928 C27.1193008,20.9383341 26.678264,20.9382599 26.4060396,21.2176928 L24.8846327,22.7802168 L21.703936,19.5135598 L28.7563326,12.2714584 C29.433461,11.5752139 30.2903138,11.0421017 31.2340298,10.7296415 C32.0397186,10.463271 32.7828254,9.99651027 33.3830632,9.38005068 C34.4213749,8.31390066 34.9802045,6.89610297 34.9570073,5.38790704 C34.93381,3.87985954 34.330248,2.47994853 33.2576825,1.4460836 C33.082583,1.27738475 32.8355793,1.21318567 32.6035346,1.27590038 C32.3714898,1.33861508 32.1872849,1.51956 32.115742,1.75483293 L31.2322955,4.66383049 C31.1232467,5.02297424 30.884409,5.3171025 30.5595753,5.4919615 C30.2345971,5.66696893 29.862863,5.70148057 29.5133867,5.58955894 C28.9363462,5.40445778 28.5485691,4.86407224 28.5485691,4.24523765 C28.5485691,4.10348015 28.5698152,3.96172265 28.6117292,3.82382451 L29.4849141,0.948299529 C29.556746,0.711616451 29.504209,0.45355842 29.3459474,0.26637914 C29.1877581,0.0791256423 28.9462465,-0.0109015052 28.7081315,0.0291023138 C27.7114448,0.195277733 26.7875295,0.642073634 26.0364735,1.32087684 C24.7140859,2.51497971 24.0413658,4.29778441 24.2369164,6.08949535 C24.4366584,7.92922572 23.7980476,9.75782329 22.48491,11.1064493 L18.0013375,15.7110447 L8.32078675,5.76887105 L8.14532595,3.8190003 C8.12538066,3.59686407 8.00570888,3.39714185 7.82186528,3.27861476 L2.9014474,0.109332608 C2.6261156,-0.0679013809 2.26818425,-0.026264753 2.03852428,0.20960192 L0.20406288,2.09356656 C-0.0256693555,2.32950745 -0.066065807,2.69711212 0.106504365,2.97966229 L3.19246084,8.0329833 C3.30772442,8.22186961 3.50233559,8.34477559 3.71855416,8.36525992 L5.61711512,8.54538843 L15.2980272,18.4880816 L8.24591962,25.7298119 C7.56828541,26.425908 6.71114353,26.9587975 5.76692164,27.2711093 C4.95053754,27.5411166 4.22759281,27.9954827 3.61781596,28.6215908 C2.57964884,29.687815 2.02074695,31.1055385 2.04401646,32.6134375 C2.06735824,34.1211139 2.67077572,35.5208023 3.74334125,36.5547414 C3.91836845,36.7234403 4.16537216,36.7875651 4.39734463,36.7250731 C4.62938936,36.6623584 4.81359429,36.4816361 4.88520946,36.2463632 L5.76966773,33.3379594 C5.87878873,32.9783703 6.11762643,32.6840194 6.44224335,32.5090862 C6.75854974,32.3386061 7.11966077,32.3014226 7.46198276,32.4031763 C7.47087142,32.4064419 7.47983235,32.4094848 7.48893781,32.4124536 C8.21101535,32.6436445 8.61541346,33.4358537 8.39037849,34.1780396 L7.51719365,37.0525997 C7.44528941,37.2892828 7.49775421,37.5474893 7.65608807,37.7347428 C7.78956257,37.8927541 7.9821503,37.9812969 8.18218139,37.9812969 C8.21932589,37.9812969 8.25675946,37.978254 8.29412075,37.9720196 C9.28914534,37.8058442 10.2126993,37.359642 10.965851,36.680913 C12.2867933,35.4870328 12.9594412,33.7040797 12.7650468,31.911107 C12.5646544,30.0723415 13.2032652,28.2438924 14.5169809,26.8945242 L19.0005535,22.290671 L22.1808888,25.5569568 L20.6594818,27.1194808 C20.3874019,27.3991364 20.3874019,27.8521667 20.6594818,28.1315996 L21.8704359,29.375429 C22.063674,29.5738895 22.3523027,29.6377917 22.6077615,29.539452 L23.9790006,29.0113868 L32.0951463,37.3469506 C32.5190561,37.7823169 33.0759346,38 33.6327408,38 C34.189547,38 34.7463531,37.7823911 35.1703352,37.3469506 L36.3643792,36.1206369 C37.2119097,35.249756 37.2119097,33.8329974 36.3641624,32.9623391 Z M23.4701065,12.1181971 C25.0844469,10.4603764 25.8686729,8.20502199 25.6216692,5.93029648 C25.4767767,4.60245172 25.9757704,3.28091554 26.9567755,2.39511669 C27.2001659,2.17513279 27.4685602,1.98802773 27.75531,1.83706712 L27.2814647,3.39729028 C27.1975644,3.67330921 27.1551445,3.95838281 27.1551445,4.24486656 C27.1551445,5.49322321 27.9358294,6.582381 29.098221,6.9553294 C30.5544444,7.42157057 32.1085877,6.58468177 32.56256,5.08947409 L33.0546885,3.468837 C33.3768484,4.05494119 33.5529596,4.71719366 33.5636549,5.41032105 C33.5809264,6.5276819 33.1667724,7.57809757 32.39765,8.36785757 C31.9467128,8.83098156 31.4115863,9.16719177 30.8066513,9.36721086 C29.653076,9.74899128 28.6031296,10.403525 27.7707026,11.259488 L20.718595,18.5012925 L18.9866785,16.7225698 L23.4701065,12.1181971 Z M13.5315677,25.8825538 C11.9164323,27.5413392 11.1322786,29.7967679 11.3801495,32.0698606 C11.524247,33.3987444 11.025181,34.7208743 10.0459826,35.6058568 C9.80201406,35.8256922 9.53369201,36.0125004 9.24686998,36.1633126 L9.72064303,34.6038316 C10.1701349,33.1211669 9.37319019,31.5400141 7.94160932,31.0585581 C7.92903511,31.0538081 7.9164609,31.0492808 7.90352537,31.0451245 C7.19806891,30.8195 6.44925311,30.8892655 5.79503294,31.2417296 C5.14066824,31.5943421 4.65923504,32.1875713 4.43961998,32.911722 L3.94669655,34.5324333 C3.62431986,33.9463292 3.44806415,33.2839283 3.43736884,32.5908009 C3.42009737,31.4735884 3.83425133,30.4233954 4.60337376,29.6334128 C5.05510581,29.1694724 5.59037686,28.8328911 6.19422793,28.6331689 C7.34787543,28.2516111 8.39818317,27.5975227 9.23133288,26.7416339 L16.2834404,19.4998294 L18.0152847,21.2784779 L13.5315677,25.8825538 Z M6.35458522,7.2791451 C6.21850916,7.1393915 6.04023001,7.06955181 5.86187859,7.06955181 C5.78383178,7.06955181 5.7057127,7.08298537 5.63135143,7.10970406 L4.18979792,6.97291921 L1.58195043,2.70238164 L2.63139098,1.6245793 L6.78962393,4.30297971 L6.92280937,5.78364055 C6.89715509,5.85904663 6.88364143,5.93883162 6.88364143,6.02017519 C6.88364143,6.20995212 6.95706325,6.3919361 7.08764713,6.52612331 L23.8991471,23.792113 L23.166013,24.5451348 L6.35458522,7.2791451 Z M23.7682019,27.5638274 L22.5383865,28.0374163 L22.1372404,27.6254289 L26.898674,22.735463 L27.2998201,23.1474503 L26.8386936,24.4104281 L23.7682019,27.5638274 Z M35.3787491,35.1084438 L34.1847052,36.3347575 C33.8803226,36.6473662 33.3847976,36.6473662 33.0802705,36.3347575 L25.1395133,28.1794706 L27.4379919,25.8188742 L35.3787491,33.9742353 C35.6832762,34.2869183 35.6832762,34.7956867 35.3787491,35.1084438 Z"></path>
  </g>
</symbol>
<symbol id="icon-parts" viewBox="0 0 81 81">
<title>Parts</title>
  <g class="path1" transform="translate(-6, -6)" fill-rule="nonzero">
<path d="M65.9677419,25 L63.9354839,25 L50.3870968,25 L40.5245484,25 C39.6486452,25 38.8736774,25.5847742 38.5959355,26.4555484 L38.3825484,27.1290323 L36.1612903,27.1290323 C35.0408387,27.1290323 34.1290323,28.0842581 34.1290323,29.2580645 L34.1290323,30.1770968 C32.1733226,30.7895484 30.7419355,32.6900645 30.7419355,34.9354839 C30.7419355,36.418 31.3685484,37.7472258 32.354871,38.6584516 C30.8394839,39.8656129 29.8023548,41.6497419 29.4968387,43.631871 C27.4855806,44.206 26,46.1320645 26,48.4193548 C26,51.158 28.1277742,53.3870968 30.7419355,53.3870968 L30.7419355,57.6451613 L33.7937097,57.6451613 C34.0457097,58.6706452 34.4345484,59.6514194 34.9548065,60.5711613 L32.7945161,62.8350323 L36.6266774,66.8496774 L38.7876452,64.5865161 C39.6655806,65.1315484 40.6017742,65.5389032 41.5806452,65.8029032 L41.5806452,69 L47,69 L47,65.8029032 C47.978871,65.5389032 48.9150645,65.1315484 49.793,64.5865161 L51.9539677,66.8496774 L55.786129,62.8350323 L53.6258387,60.5711613 C54.1460968,59.6514194 54.5349355,58.6706452 54.7869355,57.6451613 L57.8387097,57.6451613 L57.8387097,51.9677419 L54.7869355,51.9677419 C54.5349355,50.9422581 54.1460968,49.9614839 53.6258387,49.0417419 L55.5740968,47 L63.9354839,47 L63.9354839,37.7741935 L63.9354839,36.3548387 L65.9677419,36.3548387 C67.0881935,36.3548387 68,35.3996129 68,34.2258065 L68,27.1290323 C68,25.9552258 67.0881935,25 65.9677419,25 Z M56.483871,26.4193548 C57.6043226,26.4193548 58.516129,27.3745806 58.516129,28.5483871 C58.516129,29.7221935 57.6043226,30.6774194 56.483871,30.6774194 C55.3634194,30.6774194 54.4516129,29.7221935 54.4516129,28.5483871 C54.4516129,27.3745806 55.3634194,26.4193548 56.483871,26.4193548 Z M51.7419355,26.4193548 L53.7918065,26.4193548 C53.3616452,27.0140645 53.0967742,27.7464516 53.0967742,28.5483871 C53.0967742,30.5049677 54.6162258,32.0967742 56.483871,32.0967742 C57.2493548,32.0967742 57.9484516,31.8192903 58.516129,31.3686452 L58.516129,36.3548387 L51.7419355,36.3548387 L51.7419355,26.4193548 Z M46.1979355,26.4193548 C45.9174839,27.2432903 45.1723226,27.8387097 44.2903226,27.8387097 C43.4083226,27.8387097 42.6631613,27.2432903 42.3827097,26.4193548 L46.1979355,26.4193548 Z M32.0967742,34.9354839 C32.0967742,32.9789032 33.6162258,31.3870968 35.483871,31.3870968 C37.3515161,31.3870968 38.8709677,32.9789032 38.8709677,34.9354839 C38.8709677,36.8920645 37.3515161,38.483871 35.483871,38.483871 C34.7895161,38.483871 34.1432581,38.2624516 33.6053871,37.8849032 L33.5870968,37.845871 C33.5803226,37.8494194 33.5749032,37.8536774 33.568129,37.8572258 C32.6813871,37.2163871 32.0967742,36.1469032 32.0967742,34.9354839 Z M33.5776129,39.4809677 C33.7557742,39.5632903 33.9400323,39.6349677 34.1290323,39.6945806 L34.1290323,44.9504516 C33.2815806,44.0456129 32.123871,43.5048387 30.8943548,43.4629677 C31.25,41.8264516 32.2220968,40.3850968 33.5776129,39.4809677 Z M30.7419355,51.9677419 C28.8742903,51.9677419 27.3548387,50.3759355 27.3548387,48.4193548 C27.3548387,46.4627742 28.8742903,44.8709677 30.7419355,44.8709677 C31.7641613,44.8709677 32.7254194,45.3641935 33.3635484,46.1810323 L32.7938387,46.777871 L34.954129,49.0417419 C34.433871,49.9614839 34.0450323,50.9422581 33.7930323,51.9677419 L31.4193548,51.9677419 L30.7419355,51.9677419 Z M53.7741935,46.8786452 L51.8950323,48.8472903 L52.2005484,49.3305806 C52.8779677,50.4029032 53.3440323,51.576 53.5838387,52.8186452 L53.6942581,53.3870968 L56.483871,53.3870968 L56.483871,56.2258065 L53.6942581,56.2258065 L53.5838387,56.7942581 C53.3440323,58.0369032 52.8779677,59.21 52.2005484,60.2823226 L51.8950323,60.7656129 L53.8710645,62.8357419 L51.9546452,64.8434194 L49.9786129,62.7732903 L49.5172903,63.0933548 C48.4937097,63.8030323 47.3739355,64.2912903 46.1877742,64.5425161 L45.6451613,64.6581935 L45.6451613,67.5806452 L42.9354839,67.5806452 L42.9354839,64.6581935 L42.392871,64.5425161 C41.2067097,64.2912903 40.0869355,63.8030323 39.0633548,63.0933548 L38.6020323,62.7732903 L36.626,64.8434194 L34.7095806,62.8357419 L36.6856129,60.7656129 L36.3800968,60.2823226 C35.7026774,59.21 35.2366129,58.0369032 34.9968065,56.7942581 L34.8863871,56.2258065 L32.0967742,56.2258065 L32.0967742,53.3870968 L34.8863871,53.3870968 L34.9968065,52.8186452 C35.2366129,51.576 35.7026774,50.4029032 36.3800968,49.3305806 L36.6856129,48.8472903 L34.7095806,46.7771613 L36.626,44.7694839 L38.6020323,46.8396129 L39.0633548,46.5195484 C40.0869355,45.809871 41.2067097,45.3216129 42.392871,45.0703871 L42.9354839,44.9547097 L42.9354839,42.0322581 L45.6451613,42.0322581 L45.6451613,44.9547097 L46.1877742,45.0703871 C47.3739355,45.3216129 48.4937097,45.809871 49.5172903,46.5195484 L49.9786129,46.8396129 L51.9546452,44.7694839 L53.7741935,46.6763871 L53.7741935,46.8786452 Z M62.5806452,45.5806452 L54.644,45.5806452 L51.9539677,42.7625161 L49.793,45.0256774 C48.9150645,44.4806452 47.978871,44.0732903 47,43.8092903 L47,40.6129032 L41.5806452,40.6129032 L41.5806452,43.81 C40.6017742,44.074 39.6655806,44.4813548 38.7876452,45.0263871 L36.6266774,42.7632258 L35.483871,43.9597419 L35.483871,39.9032258 C38.0980323,39.9032258 40.2258065,37.674129 40.2258065,34.9354839 C40.2258065,32.1968387 38.0980323,29.9677419 35.483871,29.9677419 L35.483871,29.2580645 C35.483871,28.8663226 35.7873548,28.5483871 36.1612903,28.5483871 L39.3593871,28.5483871 L39.8816774,26.9047742 C39.9744839,26.6138065 40.2332581,26.4193548 40.5245484,26.4193548 L40.9716452,26.4193548 C41.2866452,28.0367097 42.6550323,29.2580645 44.2903226,29.2580645 C45.9256129,29.2580645 47.294,28.0367097 47.609,26.4193548 L50.3870968,26.4193548 L50.3870968,34.2442581 C49.8194194,33.7936129 49.1203226,33.516129 48.3548387,33.516129 C46.4871935,33.516129 44.9677419,35.1079355 44.9677419,37.0645161 C44.9677419,39.0210968 46.4871935,40.6129032 48.3548387,40.6129032 C49.990129,40.6129032 51.3585161,39.3915484 51.6735161,37.7741935 L62.5806452,37.7741935 L62.5806452,45.5806452 Z M50.3870968,37.0645161 C50.3870968,38.2383226 49.4752903,39.1935484 48.3548387,39.1935484 C47.2343871,39.1935484 46.3225806,38.2383226 46.3225806,37.0645161 C46.3225806,35.8907097 47.2343871,34.9354839 48.3548387,34.9354839 C49.4752903,34.9354839 50.3870968,35.8907097 50.3870968,37.0645161 Z M66.6451613,34.2258065 C66.6451613,34.6175484 66.3416774,34.9354839 65.9677419,34.9354839 L63.9354839,34.9354839 L63.9354839,33.516129 L62.5806452,33.516129 L62.5806452,34.9354839 L62.5806452,36.3548387 L59.8709677,36.3548387 L59.8709677,28.5483871 C59.8709677,27.7464516 59.6060968,27.0140645 59.1759355,26.4193548 L62.5806452,26.4193548 L62.5806452,32.0967742 L63.9354839,32.0967742 L63.9354839,26.4193548 L65.9677419,26.4193548 C66.3416774,26.4193548 66.6451613,26.7372903 66.6451613,27.1290323 L66.6451613,34.2258065 Z"></path>
<path d="M30.5294118,46.5686275 C29.3943137,46.5686275 28.4705882,47.5363399 28.4705882,48.7254902 C28.4705882,49.9146405 29.3943137,50.8823529 30.5294118,50.8823529 C31.6645098,50.8823529 32.5882353,49.9146405 32.5882353,48.7254902 C32.5882353,47.5363399 31.6645098,46.5686275 30.5294118,46.5686275 Z M30.5294118,49.4444444 C30.1505882,49.4444444 29.8431373,49.1223529 29.8431373,48.7254902 C29.8431373,48.3286275 30.1505882,48.0065359 30.5294118,48.0065359 C30.9082353,48.0065359 31.2156863,48.3286275 31.2156863,48.7254902 C31.2156863,49.1223529 30.9082353,49.4444444 30.5294118,49.4444444 Z"></path>
<path d="M35.4705882,37.0784314 C36.6056863,37.0784314 37.5294118,36.110719 37.5294118,34.9215686 C37.5294118,33.7324183 36.6056863,32.7647059 35.4705882,32.7647059 C34.3354902,32.7647059 33.4117647,33.7324183 33.4117647,34.9215686 C33.4117647,36.110719 34.3354902,37.0784314 35.4705882,37.0784314 Z M35.4705882,34.2026144 C35.8494118,34.2026144 36.1568627,34.5247059 36.1568627,34.9215686 C36.1568627,35.3184314 35.8494118,35.6405229 35.4705882,35.6405229 C35.0917647,35.6405229 34.7843137,35.3184314 34.7843137,34.9215686 C34.7843137,34.5247059 35.0917647,34.2026144 35.4705882,34.2026144 Z"></path>
<path d="M44.1176471,47.4313725 C40.4848941,47.4313725 37.5294118,50.5275922 37.5294118,54.3333333 C37.5294118,58.1390745 40.4848941,61.2352941 44.1176471,61.2352941 C45.3667765,61.2352941 46.5836235,60.8667294 47.6364235,60.1689412 L46.9314824,59.0032 C46.0901647,59.5601882 45.1177412,59.854902 44.1176471,59.854902 C41.2115765,59.854902 38.8470588,57.3777882 38.8470588,54.3333333 C38.8470588,51.2888784 41.2115765,48.8117647 44.1176471,48.8117647 C47.0237176,48.8117647 49.3882353,51.2888784 49.3882353,54.3333333 C49.3882353,55.8006902 48.8447059,57.1817725 47.8577882,58.2239686 L48.7933176,59.1957647 C50.0266353,57.8940549 50.7058824,56.1671843 50.7058824,54.3333333 C50.7058824,50.5275922 47.7504,47.4313725 44.1176471,47.4313725 Z"></path>
<path d="M44.1176471,50.8823529 C41.8467647,50.8823529 40,52.8170588 40,55.1960784 C40,57.575098 41.8467647,59.5098039 44.1176471,59.5098039 C46.3885294,59.5098039 48.2352941,57.575098 48.2352941,55.1960784 C48.2352941,52.8170588 46.3885294,50.8823529 44.1176471,50.8823529 Z M44.1176471,58.0718954 C42.6037255,58.0718954 41.372549,56.7820915 41.372549,55.1960784 C41.372549,53.6100654 42.6037255,52.3202614 44.1176471,52.3202614 C45.6315686,52.3202614 46.8627451,53.6100654 46.8627451,55.1960784 C46.8627451,56.7820915 45.6315686,58.0718954 44.1176471,58.0718954 Z"></path>
  </g>
</symbol>
<symbol id="icon-check" viewBox="0 0 32 32">
<title>Check Mark</title>
<g stroke="none" stroke-width="1" fill="none" fill-rule="evenodd" class="path1">
<polyline points="19.3907534 27.5420751 23.8486783 32 33.4877702 19"></polyline>
</g>
</symbol>
<symbol id="icon-calendar" viewBox="0 0 24 24">
<title>Calendar</title>
<g fill-rule="evenodd" class="path1" transform="translate(-14, -14)">
<path d="M33.32,18.4285714 L29.92,18.4285714 L29.92,17.3571429 C29.92,17.1598983 29.7677768,17 29.58,17 C29.3922232,17 29.24,17.1598983 29.24,17.3571429 L29.24,18.4285714 L21.76,18.4285714 L21.76,17.3571429 C21.76,17.1598983 21.6077768,17 21.42,17 C21.2322232,17 21.08,17.1598983 21.08,17.3571429 L21.08,18.4285714 L17.68,18.4285714 C17.3044464,18.4285714 17,18.748368 17,19.1428571 L17,22 L34,22 L34,19.1428571 C34,18.748368 33.6955536,18.4285714 33.32,18.4285714 Z"></path>
<path d="M17,33.3125 C17,33.6921958 17.3044464,34 17.68,34 L33.32,34 C33.6955536,34 34,33.6921958 34,33.3125 L34,23 L17,23 L17,33.3125 Z"></path>
</g>
</symbol>
<symbol id="icon-user" viewBox="0 0 24 24">
<title>User</title>
<g fill-rule="evenodd" class="path1" transform="translate(3, 3)">
<path d="M8.5,10.7368421 C10.6072842,10.7368421 12.5263158,7.75164211 12.5263158,4.47368421 C12.5263158,1.63065789 11.0589474,0 8.5,0 C5.94105263,0 4.47368421,1.63065789 4.47368421,4.47368421 C4.47368421,7.75164211 6.39271579,10.7368421 8.5,10.7368421 Z"></path>
<path d="M16.3533737,13.0278158 C15.2067684,12.3360053 12.8039526,10.9111368 11.3556421,10.2264842 C10.643897,11.0758271 9.60719477,11.5859277 8.5,11.6315789 C7.38942721,11.5854499 6.34996645,11.0725106 5.63773684,10.2191474 C4.18137368,10.9009368 1.78419474,12.3326053 0.6426,13.0270105 C0.243002941,13.2704312 -0.000603733079,13.7047309 -4.96678309e-16,14.1726316 L-4.96678309e-16,14.9732421 C-0.000607249526,15.6309912 0.476161429,16.1919847 1.1254,16.2974526 C3.5634146,16.7093721 6.02806235,16.9441689 8.5,17 C10.9719377,16.9441689 13.4365854,16.7093721 15.8746,16.2974526 C16.5239055,16.1919739 17.0006951,15.6308799 17,14.9730632 L17,14.1757632 C17.0006004,13.7062167 16.7552509,13.2706509 16.3533737,13.0278158 Z"></path>
</g>
</symbol>
<symbol id="icon-search" viewBox="0 0 32 32">
<title>Search</title>
<g class="path1" transform="translate(2, 4)">
<path d="M9.516 14.016c2.484 0 4.5-2.016 4.5-4.5s-2.016-4.5-4.5-4.5-4.5 2.016-4.5 4.5 2.016 4.5 4.5 4.5zM15.516 14.016l4.969 4.969-1.5 1.5-4.969-4.969v-0.797l-0.281-0.281c-1.125 0.984-2.625 1.547-4.219 1.547-3.609 0-6.516-2.859-6.516-6.469s2.906-6.516 6.516-6.516 6.469 2.906 6.469 6.516c0 1.594-0.563 3.094-1.547 4.219l0.281 0.281h0.797z"></path>
</g>
</symbol>
<symbol id="icon-armchair" viewBox="0 0  24 24">
<title>Armchair</title>
<g class="path1" transform="translate(2, 2)">
  <rect x="3.63636364" y="12.7272727" width="13.6363636" height="1.81818182"></rect>
  <path d="M3.63636364,10 L3.63636364,11.8181818 L17.2727273,11.8181818 L17.2727273,10 C17.2727273,9.49792295 17.6797411,9.09090909 18.1818182,9.09090909 L19.0909091,9.09090909 L19.0909091,1.36363636 C19.0909091,0.610520796 18.4803883,0 17.7272727,0 L3.18181818,0 C2.42870261,0 1.81818182,0.610520796 1.81818182,1.36363636 L1.81818182,9.09090909 L2.72727273,9.09090909 C3.22934977,9.09090909 3.63636364,9.49792295 3.63636364,10 Z"></path>
  <path d="M20,10 L19.0909091,10 C18.588832,10 18.1818182,10.4070139 18.1818182,10.9090909 L18.1818182,15.4545455 L2.72727273,15.4545455 L2.72727273,10.9090909 C2.72727273,10.4070139 2.32025886,10 1.81818182,10 L0.909090909,10 C0.407013864,10 0,10.4070139 0,10.9090909 L0,19.0909091 C0,19.5929861 0.407013864,20 0.909090909,20 L2.72727273,20 L2.72727273,18.1818182 L18.1818182,18.1818182 L18.1818182,20 L20,20 C20.502077,20 20.9090909,19.5929861 20.9090909,19.0909091 L20.9090909,10.9090909 C20.9090909,10.4070139 20.502077,10 20,10 Z"></path>
</g>
</symbol>
<symbol id="icon-coffee" viewBox="0 0  24 24">
<title>Coffee</title>
<g class="path1" transform="translate(3, 2)">
  <path d="M11.7675652,5.2173913 C11.793838,5.2173717 11.8200471,5.21480903 11.8458261,5.20973913 C12.0739318,5.15566867 12.2181001,4.93049229 12.1717391,4.70069565 C11.9854317,3.95951427 12.2974631,3.18264777 12.9446957,2.77626087 C13.7557534,2.24379665 14.1084893,1.23326002 13.8049565,0.31173913 C13.7785208,0.203660738 13.7089593,0.111132374 13.6124793,0.0557122251 C13.5159993,0.000292076585 13.4010263,-0.0131800262 13.2943478,0.0184347826 C13.0724271,0.0956110015 12.9504078,0.333636715 13.0173043,0.558869565 C13.2433913,1.36634783 12.9303478,1.6473913 12.4124348,2.11356522 C11.5373888,2.73307169 11.1235338,3.81999929 11.3649565,4.8646087 C11.3961575,5.06410852 11.5656956,5.21266491 11.7675652,5.2173913 Z"></path>
  <path d="M14.3478261,19.1304348 L3.91304348,19.1304348 C3.67291967,19.1304348 3.47826087,19.3250936 3.47826087,19.5652174 C3.47826087,19.8053412 3.67291967,20 3.91304348,20 L14.3478261,20 C14.5879499,20 14.7826087,19.8053412 14.7826087,19.5652174 C14.7826087,19.3250936 14.5879499,19.1304348 14.3478261,19.1304348 Z"></path>
  <path d="M18.2608696,6.08695652 L0.869565217,6.08747826 C0.389317609,6.08747826 0,6.47679587 0,6.95704348 L0,8.69565217 L13.4782609,8.69565217 C13.7183847,8.69565217 13.9130435,8.89031098 13.9130435,9.13043478 C13.9130435,9.37055859 13.7183847,9.56521739 13.4782609,9.56521739 L0,9.56521739 L0,11.3043478 C3.8616453e-16,15.1463287 3.11454087,18.2608696 6.95652174,18.2608696 L10.4347826,18.2608696 C14.2767635,18.2608696 17.3913043,15.1463287 17.3913043,11.3043478 L18.2608696,11.3043478 C19.7016124,11.3043478 20.8695652,10.136395 20.8695652,8.69565217 C20.8695652,7.25490935 19.7016124,6.08695652 18.2608696,6.08695652 Z M18.2608696,10.4347826 L17.3913043,10.4347826 L17.3913043,6.95652174 L18.2608696,6.95652174 C19.2213648,6.95652174 20,7.73515696 20,8.69565217 C20,9.65614739 19.2213648,10.4347826 18.2608696,10.4347826 Z"></path>
  <path d="M8.28930435,5.2173913 C8.3155771,5.2173717 8.34178627,5.21480903 8.36756522,5.20973913 C8.59567094,5.15566867 8.73983921,4.93049229 8.69347826,4.70069565 C8.50717085,3.95951427 8.81920222,3.18264777 9.46643478,2.77626087 C10.2774926,2.24379665 10.6302284,1.23326002 10.3266957,0.31173913 C10.3002599,0.203660738 10.2306985,0.111132374 10.1342184,0.0557122251 C10.0377384,0.000292076585 9.9227654,-0.0131800262 9.81608696,0.0184347826 C9.59416621,0.0956110015 9.47214691,0.333636715 9.53904348,0.558869565 C9.76513043,1.36634783 9.45208696,1.6473913 8.93417391,2.11356522 C8.05912795,2.73307169 7.64527297,3.81999929 7.88669565,4.8646087 C7.91789663,5.06410852 8.08743473,5.21266491 8.28930435,5.2173913 Z"></path>
  <path d="M4.81104348,5.2173913 C4.83731623,5.2173717 4.8635254,5.21480903 4.88930435,5.20973913 C5.11741007,5.15566867 5.26157834,4.93049229 5.21521739,4.70069565 C5.02884267,3.95959206 5.34072523,3.18274648 5.98782609,2.77626087 C6.79888388,2.24379665 7.15161971,1.23326002 6.84808696,0.31173913 C6.82165121,0.203660738 6.75208977,0.111132374 6.65560975,0.0557122251 C6.55912973,0.000292076585 6.44415671,-0.0131800262 6.33747826,0.0184347826 C6.11555751,0.0956110015 5.99353822,0.333636715 6.06043478,0.558869565 C6.28652174,1.36634783 5.97347826,1.6473913 5.45556522,2.11356522 C4.5805533,2.73305811 4.16670263,3.81994005 4.40808696,4.86452174 C4.4392738,5.06418251 4.60901333,5.21282364 4.81104348,5.2173913 Z"></path>
</g>
</symbol>
<symbol id="icon-curved_sheet" viewBox="0 0  24 24">
<title>Curved Sheet</title>
<g class="path1" transform="translate(2, 2)">
  <path d="M17.9047619,0 L4.95238095,0 C4.3214769,0.000671889875 3.8101957,0.511953087 3.80952381,1.14285714 L3.80952381,8.38095238 L1.14285714,8.38095238 C0.511953087,8.38162427 0.000671889875,8.89290547 0,9.52380952 L0,16.7619048 C1.27580062e-15,18.0242699 1.02334914,19.047619 2.28571429,19.047619 L15.6190476,19.047619 C17.5117424,19.0455615 19.0455615,17.5117424 19.047619,15.6190476 L19.047619,1.14285714 C19.0469472,0.511953087 18.535666,0.000671889875 17.9047619,0 Z M3.80952381,16.3809524 L3.80952381,16.7619048 C3.80952381,17.6034815 3.12729105,18.2857143 2.28571429,18.2857143 C1.44413752,18.2857143 0.761904762,17.6034815 0.761904762,16.7619048 L0.761904762,9.52380952 C0.761904762,9.31341533 0.932462952,9.14285714 1.14285714,9.14285714 L3.80952381,9.14285714 L3.80952381,16.3809524 Z M13.3333333,16 L7.23809524,16 C7.02770105,16 6.85714286,15.8294418 6.85714286,15.6190476 C6.85714286,15.4086534 7.02770105,15.2380952 7.23809524,15.2380952 L13.3333333,15.2380952 C13.5437275,15.2380952 13.7142857,15.4086534 13.7142857,15.6190476 C13.7142857,15.8294418 13.5437275,16 13.3333333,16 Z M15.6190476,12.952381 L7.23809524,12.952381 C7.02770105,12.952381 6.85714286,12.7818228 6.85714286,12.5714286 C6.85714286,12.3610344 7.02770105,12.1904762 7.23809524,12.1904762 L15.6190476,12.1904762 C15.8294418,12.1904762 16,12.3610344 16,12.5714286 C16,12.7818228 15.8294418,12.952381 15.6190476,12.952381 Z M15.6190476,9.9047619 L7.23809524,9.9047619 C7.02770105,9.9047619 6.85714286,9.73420371 6.85714286,9.52380952 C6.85714286,9.31341533 7.02770105,9.14285714 7.23809524,9.14285714 L15.6190476,9.14285714 C15.8294418,9.14285714 16,9.31341533 16,9.52380952 C16,9.73420371 15.8294418,9.9047619 15.6190476,9.9047619 Z M16,6.0952381 C16,6.51602648 15.6588836,6.85714286 15.2380952,6.85714286 L7.61904762,6.85714286 C7.19825924,6.85714286 6.85714286,6.51602648 6.85714286,6.0952381 L6.85714286,3.80952381 C6.85714286,3.38873543 7.19825924,3.04761905 7.61904762,3.04761905 L15.2380952,3.04761905 C15.6588836,3.04761905 16,3.38873543 16,3.80952381 L16,6.0952381 Z"></path>
</g>
</symbol>
<symbol id="icon-donut" viewBox="0 0  24 24">
<title>Donut</title>
<g class="path1" transform="translate(3, 2)">
  <path d="M16.5832804,9.80663139 C16.0404102,10.0984693 15.4309781,10.2441174 14.8148148,10.2292769 C14.107012,10.21583 13.4067642,10.0810348 12.7445503,9.83075838 C12.4803527,9.74356261 12.2349206,9.66447972 11.9844797,9.60768959 C11.9441765,11.221983 10.6968764,12.5480044 9.08806513,12.6869066 C7.47925382,12.8258089 6.02313272,11.7331968 5.70673721,10.1497002 C5.4581477,10.0846182 5.21733305,9.99281959 4.98850088,9.87590829 C4.54121734,9.63122677 4.03697701,9.50971926 3.52733686,9.52380952 C2.89471814,9.53794184 2.26923928,9.66074197 1.67823633,9.88684303 C1.15250475,10.0880748 0.597686559,10.2029502 0.0352733686,10.2270194 C0.40900293,14.9462952 4.44382189,18.5275813 9.17409912,18.3385977 C13.9043764,18.1496141 17.6406331,14.2578587 17.6366843,9.52380952 C17.2668876,9.52455791 16.903724,9.62206146 16.5832804,9.80663139 Z M13.5702293,13.7566138 L11.9929453,13.7566138 C11.7981359,13.7566138 11.6402116,13.5986895 11.6402116,13.4038801 C11.6402116,13.2090706 11.7981359,13.0511464 11.9929453,13.0511464 L13.5702293,13.0511464 C13.7650387,13.0511464 13.922963,13.2090706 13.922963,13.4038801 C13.922963,13.5986895 13.7650387,13.7566138 13.5702293,13.7566138 Z"></path>
  <path d="M3.52733686,8.81834215 C4.14350019,8.8035016 4.75293222,8.94914973 5.29580247,9.24098765 C5.42017637,9.30116402 5.53622575,9.35343915 5.6562963,9.39887125 C5.71674098,7.79663565 6.96435319,6.49197265 8.56228759,6.35999485 C10.160222,6.22801705 11.6049795,7.31030983 11.927478,8.88091711 C12.2799368,8.94864904 12.6269481,9.04216312 12.9657143,9.16070547 C13.556713,9.38683063 14.182192,9.50965465 14.8148148,9.52380952 C15.3244723,9.53793393 15.8287382,9.41645047 16.2760494,9.17178131 C16.6821001,8.94740001 17.1373153,8.8268591 17.6011993,8.82088183 C17.2261109,4.10281663 13.1919057,0.523124031 8.46272392,0.711990298 C3.73354216,0.900856565 -0.00235072331,4.79085854 -5.77206321e-13,9.52380952 C0.499471893,9.50396416 0.992041998,9.40019866 1.45707231,9.21686067 C2.11928626,8.96658421 2.81953406,8.83178901 3.52733686,8.81834215 Z M13.0153086,7.58377425 L13.8041623,6.21763668 C13.8645344,6.10340769 13.9825272,6.03132631 14.1117193,6.02975131 C14.2409113,6.02817632 14.3606263,6.09735977 14.4237652,6.21008302 C14.4869042,6.32280627 14.4833621,6.4610289 14.4145326,6.57037037 L13.6257496,7.93650794 C13.5653774,8.05073693 13.4473846,8.12281831 13.3181926,8.12439331 C13.1890006,8.1259683 13.0692855,8.05678485 13.0061466,7.9440616 C12.9430077,7.83133835 12.9465497,7.69311572 13.0153792,7.58377425 L13.0153086,7.58377425 Z M11.9929453,4.58553792 C12.1877548,4.58553792 12.345679,4.74346217 12.345679,4.9382716 C12.345679,5.13308104 12.1877548,5.29100529 11.9929453,5.29100529 L10.4153086,5.29100529 C10.2204992,5.29100529 10.062575,5.13308104 10.062575,4.9382716 C10.062575,4.74346217 10.2204992,4.58553792 10.4153086,4.58553792 L11.9929453,4.58553792 Z M8.30786596,3.21178131 L9.71880071,2.50631393 C9.89305774,2.41917568 10.1049605,2.4897994 10.1920988,2.66405644 C10.279237,2.83831348 10.2086133,3.05021623 10.0343563,3.1373545 L8.62342152,3.84282187 C8.44916448,3.92996013 8.23726172,3.8593364 8.15012346,3.68507936 C8.0629852,3.51082232 8.13360893,3.29891957 8.30786596,3.21178131 Z M6.70405644,4.15710758 C6.7128871,4.06364314 6.75903812,3.97768979 6.83206728,3.91869551 C6.90509644,3.85970123 6.99883139,3.83265214 7.09206349,3.84366843 C7.28575268,3.86427784 7.42607428,4.03798228 7.40550265,4.23167549 L7.23880071,5.8 C7.21381896,5.98970922 7.0421394,6.12490549 6.85186093,6.10471197 C6.66158245,6.08451845 6.52210312,5.91630009 6.53749559,5.72557319 L6.70405644,4.15710758 Z M3.56472663,3.68359788 C3.65204348,3.50954691 3.8637484,3.43898912 4.03802469,3.52585538 L5.44895944,4.23132275 C5.62321648,4.31846101 5.6938402,4.53036377 5.60670194,4.70462081 C5.51956368,4.87887785 5.30766092,4.94950158 5.13340388,4.86236332 L3.72246914,4.15689594 C3.63876253,4.11505818 3.57511166,4.04167249 3.54552704,3.95289218 C3.51594242,3.86411187 3.52284904,3.76721402 3.56472663,3.68352734 L3.56472663,3.68359788 Z M2.1966843,7.21135802 C2.22702723,7.16595077 2.26747211,7.12818612 2.31485009,7.10102293 L3.68444444,6.31795414 C3.79386727,6.25541061 3.92834471,6.25599438 4.03722041,6.31948557 C4.14609612,6.38297675 4.21282927,6.49972951 4.21228214,6.62576423 C4.21173502,6.75179894 4.14399073,6.86796793 4.0345679,6.93051146 L2.66497354,7.71358025 C2.52287909,7.79477094 2.34360199,7.76756267 2.23199513,7.64786859 C2.12038826,7.52817452 2.10576762,7.34743492 2.1966843,7.21135802 Z"></path>
</g>
</symbol>
<symbol id="icon-genders" viewBox="0 0  24 24">
<title>Genders</title>
<g class="path1" transform="translate(2, 2)">
  <path d="M19.965,0.281 C19.8943528,0.111512862 19.7290744,0.000813962822 19.5454545,0 L15.9090909,0 C15.6580524,-1.53716762e-17 15.4545455,0.203506932 15.4545455,0.454545455 C15.4545455,0.705583977 15.6580524,0.909090909 15.9090909,0.909090909 L18.4481818,0.909090909 L14.5624545,4.79490909 C12.7093812,3.24928771 10.0165456,3.24856442 8.16264219,4.79319011 C6.30873882,6.3378158 5.82336146,8.98654628 7.00909091,11.0881818 C7.26369807,10.8780131 7.48446134,10.6299304 7.66363636,10.3526364 C7.4089761,9.81616002 7.27551594,9.23020784 7.27272727,8.63636364 C7.27272727,6.98174536 8.26944527,5.49005146 9.79811323,4.85685646 C11.3267812,4.22366146 13.0863541,4.57366227 14.2563459,5.74365408 C15.4263377,6.91364588 15.7763385,8.67321881 15.1431435,10.2018868 C14.5099485,11.7305547 13.0182546,12.7272727 11.3636364,12.7272727 C10.7505786,12.7238395 10.1463342,12.5809932 9.59663636,12.3095455 C9.39676343,12.5597554 9.17701954,12.7934233 8.93954545,13.0082727 C11.0438587,14.1759 13.6814629,13.6783778 15.2158212,11.8244004 C16.7501796,9.97042307 16.7457083,7.28630976 15.2051818,5.43745455 L19.0909091,1.55181818 L19.0909091,4.09090909 C19.0909091,4.34194761 19.294416,4.54545455 19.5454545,4.54545455 C19.7964931,4.54545455 20,4.34194761 20,4.09090909 L20,0.454545455 C19.9998206,0.394962132 19.9879284,0.335995386 19.965,0.281 Z"></path>
  <path d="M10,8.63636364 C10.0003434,7.77704498 9.7779615,6.93230712 9.35454545,6.18454545 C9.0999383,6.39471413 8.87917502,6.64279686 8.7,6.92009091 C8.95466026,7.45656725 9.08812042,8.04251944 9.09090909,8.63636364 C9.09090909,10.8957103 7.2593467,12.7272727 5,12.7272727 C2.7406533,12.7272727 0.909090909,10.8957103 0.909090909,8.63636364 C0.909090909,6.37701693 2.7406533,4.54545455 5,4.54545455 C5.61305774,4.54888782 6.21730216,4.6917341 6.767,4.96318182 C6.96687294,4.71297186 7.18661682,4.47930397 7.42409091,4.26445455 C5.64397077,3.27673856 3.44269146,3.46723392 1.8587156,4.74607367 C0.274739747,6.02491341 -0.375456069,8.13658679 0.21486072,10.0849032 C0.805177509,12.0332195 2.51806228,13.4289075 4.54545455,13.6135455 L4.54545455,16.3636364 L3.18181818,16.3636364 C2.93077966,16.3636364 2.72727273,16.5671433 2.72727273,16.8181818 C2.72727273,17.0692203 2.93077966,17.2727273 3.18181818,17.2727273 L4.54545455,17.2727273 L4.54545455,19.5454545 C4.54545455,19.7964931 4.74896148,20 5,20 C5.25103852,20 5.45454545,19.7964931 5.45454545,19.5454545 L5.45454545,17.2727273 L6.81818182,17.2727273 C7.06922034,17.2727273 7.27272727,17.0692203 7.27272727,16.8181818 C7.27272727,16.5671433 7.06922034,16.3636364 6.81818182,16.3636364 L5.45454545,16.3636364 L5.45454545,13.6135455 C8.02857582,13.3790868 9.99942183,11.2210499 10,8.63636364 Z"></path>
</g>
</symbol>
<symbol id="icon-part" viewBox="0 0 32 32">
<title>Part</title>
<g class="path1" transform="translate(-9, -9)">
    <path d="M35,19 L20.125,19 L20.125,20.75 L19.25,20.75 L19.25,19 L14.875,19 C14.3917508,19 14,19.3917508 14,19.875 L14,22.5 C15.9329966,22.5 17.5,24.0670034 17.5,26 C17.5,27.9329966 15.9329966,29.5 14,29.5 L14,32.125 C14,32.6082492 14.3917508,33 14.875,33 L19.25,33 L19.25,31.25 L20.125,31.25 L20.125,33 L35,33 C35.4832492,33 35.875,32.6082492 35.875,32.125 L35.875,19.875 C35.875,19.3917508 35.4832492,19 35,19 Z M20.125,29.5 L19.25,29.5 L19.25,26.875 L20.125,26.875 L20.125,29.5 Z M20.125,25.125 L19.25,25.125 L19.25,22.5 L20.125,22.5 L20.125,25.125 Z M23.625,23.375 C23.625,22.4085017 24.4085017,21.625 25.375,21.625 C26.3414983,21.625 27.125,22.4085017 27.125,23.375 C27.125,24.3414983 26.3414983,25.125 25.375,25.125 C24.4085017,25.125 23.625,24.3414983 23.625,23.375 Z M24.5,29.80625 L31.5,21.6240375 L32.165,22.1927875 L25.165,30.375 L24.5,29.80625 Z M30.625,30.375 C29.6585017,30.375 28.875,29.5914983 28.875,28.625 C28.875,27.6585017 29.6585017,26.875 30.625,26.875 C31.5914983,26.875 32.375,27.6585017 32.375,28.625 C32.375,29.5914983 31.5914983,30.375 30.625,30.375 Z"></path>
    <circle cx="30.625" cy="28.625" r="1"></circle>
    <circle cx="25.375" cy="23.375" r="1"></circle>
</g>
</symbol>
<symbol id="icon-umbrella_and_chairs" viewBox="0 0 24 24">
<title>Umbrella &amp; Chairs</title>
<g class="path1" transform="translate(2, 2)">
  <path d="M19.77904,12.842 C19.5813974,12.7436833 19.3414617,12.8236499 19.24232,13.02088 L17.75288,16 L14.8,16 C14.6662583,16.0000157 14.5413732,16.0668712 14.4672,16.17816 L12.8672,18.57816 C12.7863498,18.6970538 12.7755296,18.8501928 12.838859,18.9792736 C12.9021884,19.1083545 13.029923,19.1935161 13.1734316,19.2023354 C13.3169402,19.2111548 13.4541415,19.142275 13.5328,19.02192 L15.01424,16.8 L17.712,16.8 L18.4208,18.92656 C18.4629476,19.0659449 18.5775125,19.1714135 18.7199006,19.2019124 C18.8622887,19.2324113 19.0100022,19.1831215 19.1055439,19.0732291 C19.2010855,18.9633366 19.2293594,18.8102048 19.17936,18.67344 L18.432,16.4308 L19.958,13.37872 C20.0054582,13.2838177 20.0132647,13.1739475 19.9797017,13.0732884 C19.9461387,12.9726293 19.8739564,12.88943 19.77904,12.842 Z"></path>
  <path d="M5.53296,16.17792 C5.45870039,16.0666754 5.33375293,15.9999087 5.2,16 L2.24744,16 L0.758,13.02088 C0.694078044,12.8930504 0.566815422,12.8090329 0.424150733,12.8004761 C0.281486044,12.7919193 0.14509345,12.8601232 0.0663507235,12.9793961 C-0.0123920027,13.098669 -0.021521967,13.2508904 0.0424,13.37872 L1.568,16.4308 L0.82048,18.67328 C0.770480593,18.8100448 0.798754497,18.9631766 0.894296132,19.0730691 C0.989837766,19.1829615 1.13755128,19.2322513 1.27993938,19.2017524 C1.42232748,19.1712535 1.53689244,19.0657849 1.57904,18.9264 L2.288,16.8 L4.98608,16.8 L6.46736,19.02184 C6.59078078,19.2033357 6.83739814,19.2514784 7.02001675,19.1297253 C7.20263536,19.0079722 7.25303512,18.7618062 7.13296,18.57808 L5.53296,16.17792 Z"></path>
  <path d="M10.8,18.4 L10.4,18.4 L10.4,14.4 L13.6,14.4 C14.0418278,14.4 14.4,14.0418278 14.4,13.6 L14.4,12.8 C14.4,12.3581722 14.0418278,12 13.6,12 L10.4,12 L10.4,9.6 L18.4,9.6 L18.4,9.2 C18.3978259,4.71904072 14.8760438,1.03007958 10.4,0.82024 L10.4,0.4 C10.4,0.1790861 10.2209139,1.3527075e-17 10,0 C9.7790861,-1.3527075e-17 9.6,0.1790861 9.6,0.4 L9.6,0.82024 C5.1239744,1.03011951 1.60221478,4.71905705 1.6,9.2 L1.6,9.6 L9.6,9.6 L9.6,12 L6.4,12 C5.9581722,12 5.6,12.3581722 5.6,12.8 L5.6,13.6 C5.6,14.0418278 5.9581722,14.4 6.4,14.4 L9.6,14.4 L9.6,18.4 L9.2,18.4 C8.9790861,18.4 8.8,18.5790861 8.8,18.8 C8.8,19.0209139 8.9790861,19.2 9.2,19.2 L10.8,19.2 C11.0209139,19.2 11.2,19.0209139 11.2,18.8 C11.2,18.5790861 11.0209139,18.4 10.8,18.4 Z"></path>
</g>
</symbol>
<symbol id="icon-wifi" viewBox="0 0 24 24">
<title>Wifi</title>
<g class="path1" transform="translate(2, 3)">
  <path d="M10.8,3.9933 C7.53674365,3.98597422 4.50068029,5.66299016 2.76939,8.42913 C2.64352053,8.63891619 2.70831422,8.91082916 2.91526492,9.04130819 C3.12221562,9.17178721 3.39549526,9.11302394 3.53052,8.90901 C5.10229547,6.40986349 7.84763195,4.8933187 10.799955,4.8933187 C13.7522781,4.8933187 16.4976145,6.40986349 18.06939,8.90901 C18.2044147,9.11302394 18.4776944,9.17178721 18.6846451,9.04130819 C18.8915958,8.91082916 18.9563895,8.63891619 18.83052,8.42913 C17.0992466,5.66301737 14.0632244,3.98600533 10.8,3.9933 Z"></path>
  <path d="M11.025,8.21997 C8.9596793,8.22726049 7.03886539,9.28103305 5.92299,11.01897 C5.78706996,11.2272117 5.84569827,11.50621 6.05394,11.64213 C6.26218173,11.77805 6.54117996,11.7194217 6.6771,11.51118 C7.62117991,10.0219431 9.26177721,9.11949607 11.025045,9.11949607 C12.7883128,9.11949607 14.4289101,10.0219431 15.37299,11.51118 C15.4609148,11.6458888 15.614027,11.7234575 15.7746507,11.7146667 C15.9352743,11.705876 16.0790069,11.6120613 16.1517057,11.4685617 C16.2244045,11.3250622 16.2150249,11.1536788 16.1271,11.01897 C15.0112073,9.28100629 13.0903527,8.22723 11.025,8.21997 Z"></path>
  <path d="M21.528,6.021 C19.1985637,2.34655293 15.1506131,0.119925696 10.8,0.119925696 C6.44938685,0.119925696 2.4014363,2.34655293 0.072,6.021 C-0.0152978469,6.15604639 -0.023917991,6.32740725 0.0493866926,6.4705326 C0.122691376,6.61365795 0.266784162,6.70680365 0.427386693,6.7148826 C0.587989223,6.72296156 0.740702153,6.64474639 0.828,6.5097 C2.99159055,3.09183446 6.75488827,1.02015426 10.8,1.02015426 C14.8451117,1.02015426 18.6084094,3.09183446 20.772,6.5097 C20.8549352,6.63795673 20.9972648,6.71539082 21.15,6.71535 C21.2367299,6.71570215 21.3216683,6.69067426 21.39435,6.64335 C21.4946233,6.5785624 21.5650429,6.47658491 21.5901088,6.35986361 C21.6151748,6.24314231 21.5928326,6.12124418 21.528,6.021 Z"></path>
  <circle cx="10.80018" cy="14.96997" r="2.25"></circle>
</g>
</symbol>
<symbol id="icon-triangle-left" viewBox="0 0 45 45">
<title>Triangle Left</title>
<polygon transform="translate(23.000000, 23.000000) rotate(-90.000000) translate(-23.000000, -23.000000) " points="23 19 29 27 17 27"></polygon>
</symbol>
<symbol id="icon-triangle-right" viewBox="0 0 45 45">
<title>Triangle Right</title>
<polygon transform="translate(23.000000, 23.000000) rotate(90.000000) translate(-23.000000, -23.000000) " points="23 19 29 27 17 27"></polygon>
</symbol>
<symbol id="icon-triangle-down" viewBox="0 0 45 45">
<title>Triangle Down</title>
<polygon transform="translate(23.000000, 23.000000) rotate(180.000000) translate(-23.000000, -23.000000) " points="23 19 29 27 17 27"></polygon>
</symbol>
<symbol id="icon-triangle-up" viewBox="0 0 45 45">
<title>Triangle Up</title>
<polygon transform="translate(23.000000, 23.000000) translate(-23.000000, -23.000000) " points="23 19 29 27 17 27"></polygon>
</symbol>
</defs>
</svg>